<svg width="64" height="64" viewBox="0 0 64 64" fill="none" xmlns="http://www.w3.org/2000/svg" xmlns:xlink="http://www.w3.org/1999/xlink">
<path d="M14,30L54,30C54.53,30 55.039,30.211 55.414,30.586C55.789,30.961 56,31.47 56,32C56,32.53 55.789,33.039 55.414,33.414C55.039,33.789 54.53,34 54,34L14,34C13.47,34 12.961,33.789 12.586,33.414C12.211,33.039 12,32.53 12,32C12,31.47 12.211,30.961 12.586,30.586C12.961,30.211 13.47,30 14,30Z" fill="#000000"/>
<path d="M14.828,32L31.416,48.584C31.792,48.96 32.002,49.469 32.002,50C32.002,50.531 31.792,51.041 31.416,51.416C31.04,51.792 30.531,52.003 30,52.003C29.469,52.003 28.959,51.792 28.584,51.416L10.584,33.416C10.398,33.23 10.25,33.01 10.149,32.767C10.048,32.524 9.996,32.263 9.996,32C9.996,31.737 10.048,31.477 10.149,31.234C10.25,30.991 10.398,30.77 10.584,30.584L28.584,12.584C28.959,12.209 29.469,11.998 30,11.998C30.531,11.998 31.04,12.209 31.416,12.584C31.792,12.96 32.002,13.469 32.002,14C32.002,14.531 31.792,15.041 31.416,15.416L14.828,32Z" fill="#000000"/>
</svg>
