<svg width="640" height="1072" viewBox="0 0 640 1072" fill="none" xmlns="http://www.w3.org/2000/svg" xmlns:xlink="http://www.w3.org/1999/xlink">
<line x1="639" y1="26.002" x2="637.004" y2="1066.002" stroke="#000000" stroke-width="1" stroke-miterlimit="3.999327"/>
<line x1="553" y1="2" x2="553" y2="1068" stroke="#000000" stroke-width="1" stroke-miterlimit="3.999327"/>
<line x1="465" y1="2" x2="465" y2="1068" stroke="#000000" stroke-width="1" stroke-miterlimit="3.999327"/>
<line x1="377" y1="2" x2="377" y2="1068" stroke="#000000" stroke-width="1" stroke-miterlimit="3.999327"/>
<line x1="289" y1="2" x2="289" y2="1068" stroke="#000000" stroke-width="1" stroke-miterlimit="3.999327"/>
<line x1="201" y1="2" x2="201" y2="1068" stroke="#000000" stroke-width="1" stroke-miterlimit="3.999327"/>
<line x1="113" y1="0" x2="113" y2="1066" stroke="#000000" stroke-width="1" stroke-miterlimit="3.999327"/>
<line x1="25" y1="2" x2="25" y2="1068" stroke="#000000" stroke-width="1" stroke-miterlimit="3.999327"/>
<path d="M26,1071C26.376,1071 26.753,1071 27.131,1071C27.509,1071 27.887,1071 28.267,1071C28.646,1071 29.026,1071 29.407,1071C29.788,1071 30.169,1071 30.551,1071C30.933,1071 31.316,1071 31.7,1071C32.084,1071 32.468,1071 32.853,1071C33.238,1071 33.624,1071 34.011,1071C34.397,1071 34.785,1071 35.173,1071C35.561,1071 35.949,1071 36.339,1071C36.728,1071 37.118,1071 37.509,1071C37.9,1071 38.292,1071 38.684,1071C39.076,1071 39.469,1071 39.863,1071C40.256,1071 40.651,1071 41.046,1071C41.441,1071 41.836,1071 42.233,1071C42.629,1071 43.026,1071 43.424,1071C43.822,1071 44.22,1071 44.619,1071C45.019,1071 45.418,1071 45.819,1071C46.219,1071 46.621,1071 47.022,1071C47.424,1071 47.827,1071 48.23,1071C48.633,1071 49.037,1071 49.442,1071C49.846,1071 50.251,1071 50.657,1071C51.063,1071 51.469,1071 51.877,1071C52.284,1071 52.692,1071 53.1,1071C53.508,1071 53.918,1071 54.327,1071C54.737,1071 55.147,1071 55.559,1071C55.97,1071 56.381,1071 56.794,1071C57.206,1071 57.619,1071 58.032,1071C58.446,1071 58.86,1071 59.275,1071C59.69,1071 60.105,1071 60.522,1071C60.938,1071 61.354,1071 61.772,1071C62.189,1071 62.607,1071 63.026,1071C63.444,1071 63.863,1071 64.283,1071C64.703,1071 65.123,1071 65.544,1071C65.966,1071 66.387,1071 66.809,1071C67.232,1071 67.654,1071 68.078,1071C68.501,1071 68.925,1071 69.35,1071C69.775,1071 70.2,1071 70.626,1071C71.052,1071 71.478,1071 71.905,1071C72.332,1071 72.76,1071 73.188,1071C73.616,1071 74.045,1071 74.474,1071C74.903,1071 75.333,1071 75.764,1071C76.194,1071 76.625,1071 77.057,1071C77.488,1071 77.921,1071 78.353,1071C78.786,1071 79.219,1071 79.653,1071C80.087,1071 80.522,1071 80.957,1071C81.392,1071 81.827,1071 82.263,1071C82.699,1071 83.136,1071 83.573,1071C84.011,1071 84.448,1071 84.887,1071C85.325,1071 85.764,1071 86.203,1071C86.642,1071 87.082,1071 87.523,1071C87.963,1071 88.404,1071 88.846,1071C89.287,1071 89.729,1071 90.172,1071C90.615,1071 91.058,1071 91.501,1071C91.945,1071 92.389,1071 92.834,1071C93.278,1071 93.724,1071 94.169,1071C94.615,1071 95.061,1071 95.508,1071C95.955,1071 96.402,1071 96.85,1071C97.297,1071 97.746,1071 98.194,1071C98.643,1071 99.092,1071 99.542,1071C99.992,1071 100.442,1071 100.893,1071C101.344,1071 101.795,1071 102.246,1071C102.698,1071 103.15,1071 103.603,1071C104.056,1071 104.509,1071 104.963,1071C105.416,1071 105.87,1071 106.325,1071C106.78,1071 107.235,1071 107.69,1071C108.146,1071 108.602,1071 109.058,1071C109.515,1071 109.972,1071 110.429,1071C110.887,1071 111.344,1071 111.803,1071C112.261,1071 112.72,1071 113.179,1071C113.638,1071 114.098,1071 114.558,1071C115.019,1071 115.479,1071 115.94,1071C116.401,1071 116.863,1071 117.325,1071C117.787,1071 118.249,1071 118.712,1071C119.175,1071 119.638,1071 120.102,1071C120.565,1071 121.029,1071 121.494,1071C121.959,1071 122.424,1071 122.889,1071C123.354,1071 123.82,1071 124.286,1071C124.753,1071 125.219,1071 125.686,1071C126.154,1071 126.621,1071 127.089,1071C127.557,1071 128.025,1071 128.494,1071C128.963,1071 129.432,1071 129.901,1071C130.371,1071 130.841,1071 131.311,1071C131.782,1071 132.252,1071 132.723,1071C133.195,1071 133.666,1071 134.138,1071C134.61,1071 135.082,1071 135.555,1071C136.028,1071 136.501,1071 136.974,1071C137.448,1071 137.922,1071 138.396,1071C138.87,1071 139.345,1071 139.82,1071C140.295,1071 140.77,1071 141.246,1071C141.721,1071 142.197,1071 142.674,1071C143.15,1071 143.627,1071 144.104,1071C144.582,1071 145.059,1071 145.537,1071C146.015,1071 146.493,1071 146.972,1071C147.45,1071 147.929,1071 148.409,1071C148.888,1071 149.368,1071 149.848,1071C150.328,1071 150.808,1071 151.289,1071C151.769,1071 152.25,1071 152.732,1071C153.213,1071 153.695,1071 154.177,1071C154.659,1071 155.141,1071 155.624,1071C156.107,1071 156.59,1071 157.073,1071C157.556,1071 158.04,1071 158.524,1071C159.008,1071 159.492,1071 159.977,1071C160.461,1071 160.946,1071 161.431,1071C161.917,1071 162.402,1071 162.888,1071C163.374,1071 163.86,1071 164.347,1071C164.833,1071 165.32,1071 165.807,1071C166.294,1071 166.781,1071 167.269,1071C167.756,1071 168.244,1071 168.733,1071C169.221,1071 169.709,1071 170.198,1071C170.687,1071 171.176,1071 171.665,1071C172.155,1071 172.644,1071 173.134,1071C173.624,1071 174.114,1071 174.605,1071C175.095,1071 175.586,1071 176.077,1071C176.568,1071 177.059,1071 177.551,1071C178.042,1071 178.534,1071 179.026,1071C179.518,1071 180.01,1071 180.503,1071C180.996,1071 181.488,1071 181.981,1071C182.474,1071 182.968,1071 183.461,1071C183.955,1071 184.449,1071 184.943,1071C185.437,1071 185.931,1071 186.426,1071C186.92,1071 187.415,1071 187.91,1071C188.405,1071 188.9,1071 189.396,1071C189.891,1071 190.387,1071 190.883,1071C191.378,1071 191.875,1071 192.371,1071C192.867,1071 193.364,1071 193.861,1071C194.357,1071 194.854,1071 195.352,1071C195.849,1071 196.346,1071 196.844,1071C197.342,1071 197.839,1071 198.338,1071C198.836,1071 199.334,1071 199.832,1071C200.331,1071 200.829,1071 201.328,1071C201.827,1071 202.326,1071 202.825,1071C203.325,1071 203.824,1071 204.324,1071C204.823,1071 205.323,1071 205.823,1071C206.323,1071 206.823,1071 207.323,1071C207.824,1071 208.324,1071 208.825,1071C209.326,1071 209.826,1071 210.327,1071C210.828,1071 211.33,1071 211.831,1071C212.332,1071 212.834,1071 213.336,1071C213.837,1071 214.339,1071 214.841,1071C215.343,1071 215.845,1071 216.348,1071C216.85,1071 217.352,1071 217.855,1071C218.358,1071 218.86,1071 219.363,1071C219.866,1071 220.369,1071 220.872,1071C221.376,1071 221.879,1071 222.382,1071C222.886,1071 223.389,1071 223.893,1071C224.397,1071 224.901,1071 225.405,1071C225.909,1071 226.412,1071 226.918,1071C227.422,1071 227.926,1071 228.43,1071C228.934,1071 229.44,1071 229.944,1071C230.448,1071 230.954,1071 231.458,1071C231.964,1071 232.468,1071 232.974,1071C233.478,1071 233.984,1071 234.49,1071C234.994,1071 235.5,1071 236.006,1071C236.512,1071 237.016,1071 237.522,1071C238.028,1071 238.534,1071 239.04,1071C239.546,1071 240.052,1071 240.558,1071C241.064,1071 241.57,1071 242.076,1071C242.582,1071 243.09,1071 243.596,1071C244.102,1071 244.608,1071 245.114,1071C245.622,1071 246.128,1071 246.634,1071C247.142,1071 247.648,1071 248.156,1071C248.662,1071 249.168,1071 249.676,1071C250.182,1071 250.69,1071 251.196,1071C251.704,1071 252.21,1071 252.718,1071C253.226,1071 253.732,1071 254.24,1071C254.746,1071 255.254,1071 255.762,1071C256.268,1071 256.776,1071 257.284,1071C257.792,1071 258.298,1071 258.806,1071C259.314,1071 259.822,1071 260.328,1071C260.836,1071 261.344,1071 261.852,1071C262.36,1071 262.866,1071 263.374,1071C263.882,1071 264.39,1071 264.898,1071C265.406,1071 265.912,1071 266.42,1071C266.928,1071 267.436,1071 267.944,1071C268.452,1071 268.96,1071 269.466,1071C269.974,1071 270.482,1071 270.99,1071C271.498,1071 272.006,1071 272.514,1071C273.022,1071 273.528,1071 274.036,1071C274.544,1071 275.052,1071 275.56,1071C276.068,1071 276.576,1071 277.082,1071C277.59,1071 278.098,1071 278.606,1071C279.114,1071 279.62,1071 280.128,1071C280.636,1071 281.144,1071 281.652,1071C282.158,1071 282.666,1071 283.174,1071C283.682,1071 284.188,1071 284.696,1071C285.204,1071 285.71,1071 286.218,1071C286.726,1071 287.232,1071 287.74,1071C288.246,1071 288.754,1071 289.262,1071C289.768,1071 290.276,1071 290.782,1071C291.29,1071 291.796,1071 292.304,1071C292.81,1071 293.316,1071 293.824,1071C294.33,1071 294.838,1071 295.344,1071C295.85,1071 296.356,1071 296.864,1071C297.37,1071 297.876,1071 298.382,1071C298.888,1071 299.396,1071 299.902,1071C300.408,1071 300.914,1071 301.42,1071C301.926,1071 302.432,1071 302.938,1071C303.444,1071 303.948,1071 304.454,1071C304.96,1071 305.466,1071 305.972,1071C306.476,1071 306.982,1071 307.488,1071C307.992,1071 308.498,1071 309.002,1071C309.508,1071 310.012,1071 310.518,1071C311.022,1071 311.528,1071 312.032,1071C312.536,1071 313.04,1071 313.544,1071C314.05,1071 314.554,1071 315.058,1071C315.562,1071 316.066,1071 316.57,1071C317.074,1071 317.578,1071 318.08,1071C318.584,1071 319.088,1071 319.592,1071C320.094,1071 320.598,1071 321.1,1071C321.604,1071 322.106,1071 322.61,1071C323.112,1071 323.614,1071 324.118,1071C324.62,1071 325.122,1071 325.624,1071C326.126,1071 326.628,1071 327.13,1071C327.632,1071 328.134,1071 328.636,1071C329.136,1071 329.638,1071 330.14,1071C330.64,1071 331.142,1071 331.642,1071C332.144,1071 332.644,1071 333.144,1071C333.644,1071 334.146,1071 334.646,1071C335.146,1071 335.646,1071 336.146,1071C336.646,1071 337.144,1071 337.644,1071C338.144,1071 338.642,1071 339.142,1071C339.64,1071 340.14,1071 340.638,1071C341.136,1071 341.636,1071 342.134,1071C342.632,1071 343.13,1071 343.628,1071C344.126,1071 344.624,1071 345.12,1071C345.618,1071 346.116,1071 346.612,1071C347.11,1071 347.606,1071 348.102,1071C348.6,1071 349.096,1071 349.592,1071C350.088,1071 350.584,1071 351.08,1071C351.576,1071 352.07,1071 352.566,1071C353.06,1071 353.556,1071 354.05,1071C354.546,1071 355.04,1071 355.534,1071C356.028,1071 356.522,1071 357.016,1071C357.51,1071 358.004,1071 358.498,1071C358.99,1071 359.484,1071 359.976,1071C360.47,1071 360.962,1071 361.454,1071C361.946,1071 362.438,1071 362.93,1071C363.422,1071 363.914,1071 364.404,1071C364.896,1071 365.386,1071 365.878,1071C366.368,1071 366.858,1071 367.348,1071C367.84,1071 368.328,1071 368.818,1071C369.308,1071 369.798,1071 370.286,1071C370.776,1071 371.264,1071 371.752,1071C372.242,1071 372.73,1071 373.218,1071C373.706,1071 374.194,1071 374.68,1071C375.168,1071 375.654,1071 376.142,1071C376.628,1071 377.114,1071 377.6,1071C378.088,1071 378.572,1071 379.058,1071C379.544,1071 380.03,1071 380.514,1071C381,1071 381.484,1071 381.968,1071C382.452,1071 382.936,1071 383.42,1071C383.904,1071 384.386,1071 384.87,1071C385.352,1071 385.836,1071 386.318,1071C386.8,1071 387.282,1071 387.764,1071C388.246,1071 388.726,1071 389.208,1071C389.688,1071 390.17,1071 390.65,1071C391.13,1071 391.61,1071 392.09,1071C392.57,1071 393.048,1071 393.528,1071C394.006,1071 394.486,1071 394.964,1071C395.442,1071 395.92,1071 396.398,1071C396.874,1071 397.352,1071 397.828,1071C398.306,1071 398.782,1071 399.258,1071C399.734,1071 400.21,1071 400.686,1071C401.16,1071 401.636,1071 402.11,1071C402.584,1071 403.06,1071 403.534,1071C404.006,1071 404.48,1071 404.954,1071C405.426,1071 405.9,1071 406.372,1071C406.844,1071 407.316,1071 407.788,1071C408.258,1071 408.73,1071 409.2,1071C409.672,1071 410.142,1071 410.612,1071C411.082,1071 411.552,1071 412.02,1071C412.49,1071 412.958,1071 413.426,1071C413.894,1071 414.362,1071 414.83,1071C415.298,1071 415.764,1071 416.232,1071C416.698,1071 417.164,1071 417.63,1071C418.096,1071 418.562,1071 419.026,1071C419.492,1071 419.956,1071 420.42,1071C420.884,1071 421.348,1071 421.812,1071C422.274,1071 422.738,1071 423.2,1071C423.662,1071 424.124,1071 424.586,1071C425.046,1071 425.508,1071 425.968,1071C426.43,1071 426.89,1071 427.348,1071C427.808,1071 428.268,1071 428.726,1071C429.186,1071 429.644,1071 430.102,1071C430.56,1071 431.016,1071 431.474,1071C431.93,1071 432.388,1071 432.844,1071C433.3,1071 433.754,1071 434.21,1071C434.666,1071 435.12,1071 435.574,1071C436.028,1071 436.482,1071 436.934,1071C437.388,1071 437.84,1071 438.292,1071C438.744,1071 439.196,1071 439.648,1071C440.1,1071 440.55,1071 441,1071C441.45,1071 441.9,1071 442.35,1071C442.798,1071 443.248,1071 443.696,1071C444.144,1071 444.592,1071 445.038,1071C445.486,1071 445.932,1071 446.378,1071C446.826,1071 447.27,1071 447.716,1071C448.162,1071 448.606,1071 449.05,1071C449.494,1071 449.938,1071 450.38,1071C450.824,1071 451.266,1071 451.708,1071C452.15,1071 452.592,1071 453.034,1071C453.474,1071 453.914,1071 454.354,1071C454.794,1071 455.234,1071 455.672,1071C456.112,1071 456.55,1071 456.988,1071C457.426,1071 457.862,1071 458.298,1071C458.736,1071 459.172,1071 459.608,1071C460.042,1071 460.478,1071 460.912,1071C461.346,1071 461.78,1071 462.214,1071C462.648,1071 463.08,1071 463.512,1071C463.944,1071 464.376,1071 464.806,1071C465.238,1071 465.668,1071 466.098,1071C466.528,1071 466.958,1071 467.386,1071C467.816,1071 468.244,1071 468.67,1071C469.098,1071 469.526,1071 469.952,1071C470.378,1071 470.804,1071 471.23,1071C471.654,1071 472.08,1071 472.504,1071C472.928,1071 473.35,1071 473.774,1071C474.196,1071 474.618,1071 475.04,1071C475.462,1071 475.882,1071 476.304,1071C476.724,1071 477.144,1071 477.562,1071C477.982,1071 478.4,1071 478.818,1071C479.236,1071 479.654,1071 480.07,1071C480.486,1071 480.904,1071 481.318,1071C481.734,1071 482.148,1071 482.564,1071C482.978,1071 483.39,1071 483.804,1071C484.216,1071 484.63,1071 485.04,1071C485.452,1071 485.864,1071 486.274,1071C486.684,1071 487.094,1071 487.502,1071C487.912,1071 488.32,1071 488.728,1071C489.136,1071 489.544,1071 489.95,1071C490.356,1071 490.762,1071 491.168,1071C491.572,1071 491.976,1071 492.38,1071C492.784,1071 493.188,1071 493.59,1071C493.992,1071 494.394,1071 494.796,1071C495.196,1071 495.598,1071 495.998,1071C496.398,1071 496.796,1071 497.194,1071C497.594,1071 497.99,1071 498.388,1071C498.786,1071 499.182,1071 499.578,1071C499.972,1071 500.368,1071 500.762,1071C501.156,1071 501.55,1071 501.944,1071C502.336,1071 502.728,1071 503.12,1071C503.512,1071 503.902,1071 504.292,1071C504.682,1071 505.072,1071 505.46,1071C505.85,1071 506.238,1071 506.624,1071C507.012,1071 507.398,1071 507.784,1071C508.17,1071 508.556,1071 508.94,1071C509.324,1071 509.708,1071 510.09,1071C510.474,1071 510.856,1071 511.238,1071C511.618,1071 512,1071 512.38,1071C512.76,1071 513.138,1071 513.518,1071C513.896,1071 514.274,1071 514.65,1071C515.028,1071 515.404,1071 515.78,1071C516.154,1071 516.53,1071 516.904,1071C517.278,1071 517.652,1071 518.024,1071C518.396,1071 518.768,1071 519.138,1071C519.51,1071 519.88,1071 520.25,1071C520.618,1071 520.988,1071 521.356,1071C521.724,1071 522.09,1071 522.458,1071C522.824,1071 523.19,1071 523.554,1071C523.918,1071 524.282,1071 524.646,1071C525.01,1071 525.372,1071 525.734,1071C526.096,1071 526.456,1071 526.816,1071C527.176,1071 527.536,1071 527.894,1071C528.252,1071 528.61,1071 528.968,1071C529.324,1071 529.68,1071 530.036,1071C530.392,1071 530.746,1071 531.1,1071C531.454,1071 531.806,1071 532.158,1071C532.51,1071 532.862,1071 533.212,1071C533.562,1071 533.912,1071 534.26,1071C534.61,1071 534.958,1071 535.304,1071C535.652,1071 535.998,1071 536.344,1071C536.69,1071 537.034,1071 537.378,1071C537.722,1071 538.064,1071 538.406,1071C538.748,1071 539.09,1071 539.43,1071C539.772,1071 540.11,1071 540.45,1071C540.788,1071 541.126,1071 541.464,1071C541.8,1071 542.136,1071 542.472,1071C542.808,1071 543.142,1071 543.476,1071C543.81,1071 544.142,1071 544.474,1071C544.806,1071 545.136,1071 545.468,1071C545.798,1071 546.126,1071 546.456,1071C546.784,1071 547.112,1071 547.438,1071C547.764,1071 548.09,1071 548.416,1071C548.74,1071 549.064,1071 549.388,1071C549.71,1071 550.032,1071 550.354,1071C550.676,1071 550.996,1071 551.316,1071C551.636,1071 551.954,1071 552.272,1071C552.59,1071 552.906,1071 553.222,1071C553.538,1071 553.854,1071 554.168,1071C554.482,1071 554.796,1071 555.108,1071C555.42,1071 555.732,1071 556.042,1071C556.354,1071 556.662,1071 556.972,1071C557.28,1071 557.588,1071 557.894,1071C558.202,1071 558.508,1071 558.812,1071C559.118,1071 559.422,1071 559.724,1071C560.028,1071 560.33,1071 560.632,1071C560.932,1071 561.234,1071 561.532,1071C561.832,1071 562.13,1071 562.428,1071C562.726,1071 563.022,1071 563.318,1071C563.614,1071 563.908,1071 564.202,1071C564.496,1071 564.788,1071 565.08,1071C565.372,1071 565.662,1071 565.952,1071C566.242,1071 566.532,1071 566.82,1071C567.108,1071 567.394,1071 567.68,1071C567.966,1071 568.252,1071 568.536,1071C568.82,1071 569.102,1071 569.386,1071C569.668,1071 569.948,1071 570.228,1071C570.508,1071 570.788,1071 571.066,1071C571.344,1071 571.622,1071 571.898,1071C572.174,1071 572.448,1071 572.724,1071C572.998,1071 573.27,1071 573.542,1071C573.816,1071 574.086,1071 574.356,1071C574.626,1071 574.896,1071 575.164,1071C575.432,1071 575.7,1071 575.966,1071C576.232,1071 576.496,1071 576.762,1071C577.026,1071 577.288,1071 577.55,1071C577.812,1071 578.074,1071 578.334,1071C578.594,1071 578.852,1071 579.11,1071C579.368,1071 579.626,1071 579.882,1071C580.138,1071 580.392,1071 580.646,1071C580.9,1071 581.152,1071 581.404,1071C581.656,1071 581.908,1071 582.156,1071C582.406,1071 582.656,1071 582.902,1071C583.15,1071 583.396,1071 583.642,1071C583.888,1071 584.132,1071 584.376,1071C584.618,1071 584.862,1071 585.102,1071C585.344,1071 585.584,1071 585.822,1071C586.062,1071 586.3,1071 586.536,1071C586.774,1071 587.01,1071 587.244,1071C587.48,1071 587.712,1071 587.946,1071C588.178,1071 588.41,1071 588.64,1071C588.87,1071 589.1,1071 589.328,1071C589.556,1071 589.784,1071 590.01,1071C590.236,1071 590.462,1071 590.684,1071C590.908,1071 591.132,1071 591.354,1071C591.576,1071 591.796,1071 592.016,1071C592.234,1071 592.454,1071 592.67,1071C592.888,1071 593.104,1071 593.318,1071C593.534,1071 593.748,1071 593.96,1071C594.174,1071 594.386,1071 594.596,1071C594.806,1071 595.016,1071 595.224,1071C595.432,1071 595.64,1071 595.846,1071C596.052,1071 596.256,1071 596.46,1071C596.664,1071 596.866,1071 597.068,1071C597.27,1071 597.47,1071 597.67,1071C597.868,1071 598.066,1071 598.264,1071C598.46,1071 598.656,1071 598.85,1071C599.046,1071 599.238,1071 599.432,1071C599.624,1071 599.814,1071 600.004,1071C600.194,1071 600.384,1071 600.572,1071C600.758,1071 600.946,1071 601.13,1071C601.316,1071 601.5,1071 601.682,1071C601.866,1071 602.048,1071 602.228,1071C602.408,1071 602.588,1071 602.766,1071C602.944,1071 603.122,1071 603.298,1071C603.474,1071 603.648,1071 603.822,1071C603.996,1071 604.168,1071 604.338,1071C604.51,1071 604.68,1071 604.848,1071C605.018,1071 605.184,1071 605.35,1071C605.518,1071 605.682,1071 605.846,1071C606.01,1071 606.172,1071 606.334,1071C606.496,1071 606.656,1071 606.814,1071C606.974,1071 607.132,1071 607.288,1071C607.444,1071 607.6,1071 607.754,1071C607.908,1071 608.062,1071 608.214,1071C608.364,1071 608.516,1071 608.664,1071C608.814,1071 608.962,1071 609.108,1071C609.256,1071 609.4,1071 609.544,1071C609.69,1071 609.832,1071 609.974,1071C610.116,1071 610.256,1071 610.396,1071C610.534,1071 610.672,1071 610.81,1071C610.946,1071 611.082,1071 611.216,1071C611.35,1071 611.484,1071 611.614,1071C611.746,1071 611.878,1071 612.006,1071C612.136,1071 612.264,1071 612.39,1071C612.516,1071 612.642,1071 612.766,1071C612.89,1071 613.012,1071 613.134,1071C613.256,1071 613.376,1071 613.496,1071C613.614,1071 613.732,1071 613.848,1071C613.964,1071 614.08,1071 614.194,1071C614.308,1071 614.42,1071 614.53,1071C614.642,1071 614.752,1071 614.86,1071C614.97,1071 615.076,1071 615.182,1071C615.288,1071 615.394,1071 615.496,1071C615.6,1071 615.702,1071 615.802,1071C615.904,1071 616.002,1071 616.1,1071C616.198,1071 616.296,1071 616.392,1071C616.486,1071 616.58,1071 616.674,1071C616.766,1071 616.858,1071 616.948,1071C617.038,1071 617.126,1071 617.214,1071C617.302,1071 617.388,1071 617.472,1071C617.558,1071 617.64,1071 617.724,1071C617.806,1071 617.886,1071 617.966,1071C618.044,1071 618.122,1071 618.2,1071C618.276,1071 618.352,1071 618.426,1071C618.5,1071 618.572,1071 618.644,1071C618.714,1071 618.784,1071 618.854,1071C618.922,1071 618.988,1071 619.054,1071C619.12,1071 619.184,1071 619.248,1071C619.31,1071 619.372,1071 619.432,1071C619.494,1071 619.552,1071 619.61,1071C619.668,1071 619.724,1071 619.778,1071C619.832,1071 619.886,1071 619.938,1071C619.99,1071 620.04,1071 620.09,1071C620.14,1071 620.186,1071 620.234,1071C620.28,1071 620.324,1071 620.368,1071C620.412,1071 620.454,1071 620.494,1071C620.536,1071 620.574,1071 620.612,1071C620.65,1071 620.688,1071 620.722,1071C620.758,1071 620.792,1071 620.824,1071C620.856,1071 620.886,1071 620.916,1071C620.946,1071 620.974,1071 621,1071L621,1069C620.974,1069 620.946,1069 620.916,1069C620.886,1069 620.856,1069 620.824,1069C620.792,1069 620.758,1069 620.722,1069C620.688,1069 620.65,1069 620.612,1069C620.574,1069 620.536,1069 620.494,1069C620.454,1069 620.412,1069 620.368,1069C620.324,1069 620.28,1069 620.234,1069C620.186,1069 620.14,1069 620.09,1069C620.04,1069 619.99,1069 619.938,1069C619.886,1069 619.832,1069 619.778,1069C619.724,1069 619.668,1069 619.61,1069C619.552,1069 619.494,1069 619.432,1069C619.372,1069 619.31,1069 619.248,1069C619.184,1069 619.12,1069 619.054,1069C618.988,1069 618.922,1069 618.854,1069C618.784,1069 618.714,1069 618.644,1069C618.572,1069 618.5,1069 618.426,1069C618.352,1069 618.276,1069 618.2,1069C618.122,1069 618.044,1069 617.966,1069C617.886,1069 617.806,1069 617.724,1069C617.64,1069 617.558,1069 617.472,1069C617.388,1069 617.302,1069 617.214,1069C617.126,1069 617.038,1069 616.948,1069C616.858,1069 616.766,1069 616.674,1069C616.58,1069 616.486,1069 616.392,1069C616.296,1069 616.198,1069 616.1,1069C616.002,1069 615.904,1069 615.802,1069C615.702,1069 615.6,1069 615.496,1069C615.394,1069 615.288,1069 615.182,1069C615.076,1069 614.97,1069 614.86,1069C614.752,1069 614.642,1069 614.53,1069C614.42,1069 614.308,1069 614.194,1069C614.08,1069 613.964,1069 613.848,1069C613.732,1069 613.614,1069 613.496,1069C613.376,1069 613.256,1069 613.134,1069C613.012,1069 612.89,1069 612.766,1069C612.642,1069 612.516,1069 612.39,1069C612.264,1069 612.136,1069 612.006,1069C611.878,1069 611.746,1069 611.614,1069C611.484,1069 611.35,1069 611.216,1069C611.082,1069 610.946,1069 610.81,1069C610.672,1069 610.534,1069 610.396,1069C610.256,1069 610.116,1069 609.974,1069C609.832,1069 609.69,1069 609.544,1069C609.4,1069 609.256,1069 609.108,1069C608.962,1069 608.814,1069 608.664,1069C608.516,1069 608.364,1069 608.214,1069C608.062,1069 607.908,1069 607.754,1069C607.6,1069 607.444,1069 607.288,1069C607.132,1069 606.974,1069 606.814,1069C606.656,1069 606.496,1069 606.334,1069C606.172,1069 606.01,1069 605.846,1069C605.682,1069 605.518,1069 605.35,1069C605.184,1069 605.018,1069 604.848,1069C604.68,1069 604.51,1069 604.338,1069C604.168,1069 603.996,1069 603.822,1069C603.648,1069 603.474,1069 603.298,1069C603.122,1069 602.944,1069 602.766,1069C602.588,1069 602.408,1069 602.228,1069C602.048,1069 601.866,1069 601.682,1069C601.5,1069 601.316,1069 601.13,1069C600.946,1069 600.758,1069 600.572,1069C600.384,1069 600.194,1069 600.004,1069C599.814,1069 599.624,1069 599.432,1069C599.238,1069 599.046,1069 598.85,1069C598.656,1069 598.46,1069 598.264,1069C598.066,1069 597.868,1069 597.67,1069C597.47,1069 597.27,1069 597.068,1069C596.866,1069 596.664,1069 596.46,1069C596.256,1069 596.052,1069 595.846,1069C595.64,1069 595.432,1069 595.224,1069C595.016,1069 594.806,1069 594.596,1069C594.386,1069 594.174,1069 593.96,1069C593.748,1069 593.534,1069 593.318,1069C593.104,1069 592.888,1069 592.67,1069C592.454,1069 592.234,1069 592.016,1069C591.796,1069 591.576,1069 591.354,1069C591.132,1069 590.908,1069 590.684,1069C590.462,1069 590.236,1069 590.01,1069C589.784,1069 589.556,1069 589.328,1069C589.1,1069 588.87,1069 588.64,1069C588.41,1069 588.178,1069 587.946,1069C587.712,1069 587.48,1069 587.244,1069C587.01,1069 586.774,1069 586.536,1069C586.3,1069 586.062,1069 585.822,1069C585.584,1069 585.344,1069 585.102,1069C584.862,1069 584.618,1069 584.376,1069C584.132,1069 583.888,1069 583.642,1069C583.396,1069 583.15,1069 582.902,1069C582.656,1069 582.406,1069 582.156,1069C581.908,1069 581.656,1069 581.404,1069C581.152,1069 580.9,1069 580.646,1069C580.392,1069 580.138,1069 579.882,1069C579.626,1069 579.368,1069 579.11,1069C578.852,1069 578.594,1069 578.334,1069C578.074,1069 577.812,1069 577.55,1069C577.288,1069 577.026,1069 576.762,1069C576.496,1069 576.232,1069 575.966,1069C575.7,1069 575.432,1069 575.164,1069C574.896,1069 574.626,1069 574.356,1069C574.086,1069 573.816,1069 573.542,1069C573.27,1069 572.998,1069 572.724,1069C572.448,1069 572.174,1069 571.898,1069C571.622,1069 571.344,1069 571.066,1069C570.788,1069 570.508,1069 570.228,1069C569.948,1069 569.668,1069 569.386,1069C569.102,1069 568.82,1069 568.536,1069C568.252,1069 567.966,1069 567.68,1069C567.394,1069 567.108,1069 566.82,1069C566.532,1069 566.242,1069 565.952,1069C565.662,1069 565.372,1069 565.08,1069C564.788,1069 564.496,1069 564.202,1069C563.908,1069 563.614,1069 563.318,1069C563.022,1069 562.726,1069 562.428,1069C562.13,1069 561.832,1069 561.532,1069C561.234,1069 560.932,1069 560.632,1069C560.33,1069 560.028,1069 559.724,1069C559.422,1069 559.118,1069 558.812,1069C558.508,1069 558.202,1069 557.894,1069C557.588,1069 557.28,1069 556.972,1069C556.662,1069 556.354,1069 556.042,1069C555.732,1069 555.42,1069 555.108,1069C554.796,1069 554.482,1069 554.168,1069C553.854,1069 553.538,1069 553.222,1069C552.906,1069 552.59,1069 552.272,1069C551.954,1069 551.636,1069 551.316,1069C550.996,1069 550.676,1069 550.354,1069C550.032,1069 549.71,1069 549.388,1069C549.064,1069 548.74,1069 548.416,1069C548.09,1069 547.764,1069 547.438,1069C547.112,1069 546.784,1069 546.456,1069C546.126,1069 545.798,1069 545.468,1069C545.136,1069 544.806,1069 544.474,1069C544.142,1069 543.81,1069 543.476,1069C543.142,1069 542.808,1069 542.472,1069C542.136,1069 541.8,1069 541.464,1069C541.126,1069 540.788,1069 540.45,1069C540.11,1069 539.772,1069 539.43,1069C539.09,1069 538.748,1069 538.406,1069C538.064,1069 537.722,1069 537.378,1069C537.034,1069 536.69,1069 536.344,1069C535.998,1069 535.652,1069 535.304,1069C534.958,1069 534.61,1069 534.26,1069C533.912,1069 533.562,1069 533.212,1069C532.862,1069 532.51,1069 532.158,1069C531.806,1069 531.454,1069 531.1,1069C530.746,1069 530.392,1069 530.036,1069C529.68,1069 529.324,1069 528.968,1069C528.61,1069 528.252,1069 527.894,1069C527.536,1069 527.176,1069 526.816,1069C526.456,1069 526.096,1069 525.734,1069C525.372,1069 525.01,1069 524.646,1069C524.282,1069 523.918,1069 523.554,1069C523.19,1069 522.824,1069 522.458,1069C522.09,1069 521.724,1069 521.356,1069C520.988,1069 520.618,1069 520.25,1069C519.88,1069 519.51,1069 519.138,1069C518.768,1069 518.396,1069 518.024,1069C517.652,1069 517.278,1069 516.904,1069C516.53,1069 516.154,1069 515.78,1069C515.404,1069 515.028,1069 514.65,1069C514.274,1069 513.896,1069 513.518,1069C513.138,1069 512.76,1069 512.38,1069C512,1069 511.618,1069 511.238,1069C510.856,1069 510.474,1069 510.09,1069C509.708,1069 509.324,1069 508.94,1069C508.556,1069 508.17,1069 507.784,1069C507.398,1069 507.012,1069 506.624,1069C506.238,1069 505.85,1069 505.46,1069C505.072,1069 504.682,1069 504.292,1069C503.902,1069 503.512,1069 503.12,1069C502.728,1069 502.336,1069 501.944,1069C501.55,1069 501.156,1069 500.762,1069C500.368,1069 499.972,1069 499.578,1069C499.182,1069 498.786,1069 498.388,1069C497.99,1069 497.594,1069 497.194,1069C496.796,1069 496.398,1069 495.998,1069C495.598,1069 495.196,1069 494.796,1069C494.394,1069 493.992,1069 493.59,1069C493.188,1069 492.784,1069 492.38,1069C491.976,1069 491.572,1069 491.168,1069C490.762,1069 490.356,1069 489.95,1069C489.544,1069 489.136,1069 488.728,1069C488.32,1069 487.912,1069 487.502,1069C487.094,1069 486.684,1069 486.274,1069C485.864,1069 485.452,1069 485.04,1069C484.63,1069 484.216,1069 483.804,1069C483.39,1069 482.978,1069 482.564,1069C482.148,1069 481.734,1069 481.318,1069C480.904,1069 480.486,1069 480.07,1069C479.654,1069 479.236,1069 478.818,1069C478.4,1069 477.982,1069 477.562,1069C477.144,1069 476.724,1069 476.304,1069C475.882,1069 475.462,1069 475.04,1069C474.618,1069 474.196,1069 473.774,1069C473.35,1069 472.928,1069 472.504,1069C472.08,1069 471.654,1069 471.23,1069C470.804,1069 470.378,1069 469.952,1069C469.526,1069 469.098,1069 468.67,1069C468.244,1069 467.816,1069 467.386,1069C466.958,1069 466.528,1069 466.098,1069C465.668,1069 465.238,1069 464.806,1069C464.376,1069 463.944,1069 463.512,1069C463.08,1069 462.648,1069 462.214,1069C461.78,1069 461.346,1069 460.912,1069C460.478,1069 460.042,1069 459.608,1069C459.172,1069 458.736,1069 458.298,1069C457.862,1069 457.426,1069 456.988,1069C456.55,1069 456.112,1069 455.672,1069C455.234,1069 454.794,1069 454.354,1069C453.914,1069 453.474,1069 453.034,1069C452.592,1069 452.15,1069 451.708,1069C451.266,1069 450.824,1069 450.38,1069C449.938,1069 449.494,1069 449.05,1069C448.606,1069 448.162,1069 447.716,1069C447.27,1069 446.826,1069 446.378,1069C445.932,1069 445.486,1069 445.038,1069C444.592,1069 444.144,1069 443.696,1069C443.248,1069 442.798,1069 442.35,1069C441.9,1069 441.45,1069 441,1069C440.55,1069 440.1,1069 439.648,1069C439.196,1069 438.744,1069 438.292,1069C437.84,1069 437.388,1069 436.934,1069C436.482,1069 436.028,1069 435.574,1069C435.12,1069 434.666,1069 434.21,1069C433.754,1069 433.3,1069 432.844,1069C432.388,1069 431.93,1069 431.474,1069C431.016,1069 430.56,1069 430.102,1069C429.644,1069 429.186,1069 428.726,1069C428.268,1069 427.808,1069 427.348,1069C426.89,1069 426.43,1069 425.968,1069C425.508,1069 425.046,1069 424.586,1069C424.124,1069 423.662,1069 423.2,1069C422.738,1069 422.274,1069 421.812,1069C421.348,1069 420.884,1069 420.42,1069C419.956,1069 419.492,1069 419.026,1069C418.562,1069 418.096,1069 417.63,1069C417.164,1069 416.698,1069 416.232,1069C415.764,1069 415.298,1069 414.83,1069C414.362,1069 413.894,1069 413.426,1069C412.958,1069 412.49,1069 412.02,1069C411.552,1069 411.082,1069 410.612,1069C410.142,1069 409.672,1069 409.2,1069C408.73,1069 408.258,1069 407.788,1069C407.316,1069 406.844,1069 406.372,1069C405.9,1069 405.426,1069 404.954,1069C404.48,1069 404.006,1069 403.534,1069C403.06,1069 402.584,1069 402.11,1069C401.636,1069 401.16,1069 400.686,1069C400.21,1069 399.734,1069 399.258,1069C398.782,1069 398.306,1069 397.828,1069C397.352,1069 396.874,1069 396.398,1069C395.92,1069 395.442,1069 394.964,1069C394.486,1069 394.006,1069 393.528,1069C393.048,1069 392.57,1069 392.09,1069C391.61,1069 391.13,1069 390.65,1069C390.17,1069 389.688,1069 389.208,1069C388.726,1069 388.246,1069 387.764,1069C387.282,1069 386.8,1069 386.318,1069C385.836,1069 385.352,1069 384.87,1069C384.386,1069 383.904,1069 383.42,1069C382.936,1069 382.452,1069 381.968,1069C381.484,1069 381,1069 380.514,1069C380.03,1069 379.544,1069 379.058,1069C378.572,1069 378.088,1069 377.6,1069C377.114,1069 376.628,1069 376.142,1069C375.654,1069 375.168,1069 374.68,1069C374.194,1069 373.706,1069 373.218,1069C372.73,1069 372.242,1069 371.752,1069C371.264,1069 370.776,1069 370.286,1069C369.798,1069 369.308,1069 368.818,1069C368.328,1069 367.84,1069 367.348,1069C366.858,1069 366.368,1069 365.878,1069C365.386,1069 364.896,1069 364.404,1069C363.914,1069 363.422,1069 362.93,1069C362.438,1069 361.946,1069 361.454,1069C360.962,1069 360.47,1069 359.976,1069C359.484,1069 358.99,1069 358.498,1069C358.004,1069 357.51,1069 357.016,1069C356.522,1069 356.028,1069 355.534,1069C355.04,1069 354.546,1069 354.05,1069C353.556,1069 353.06,1069 352.566,1069C352.07,1069 351.576,1069 351.08,1069C350.584,1069 350.088,1069 349.592,1069C349.096,1069 348.6,1069 348.102,1069C347.606,1069 347.11,1069 346.612,1069C346.116,1069 345.618,1069 345.12,1069C344.624,1069 344.126,1069 343.628,1069C343.13,1069 342.632,1069 342.134,1069C341.636,1069 341.136,1069 340.638,1069C340.14,1069 339.64,1069 339.142,1069C338.642,1069 338.144,1069 337.644,1069C337.144,1069 336.646,1069 336.146,1069C335.646,1069 335.146,1069 334.646,1069C334.146,1069 333.644,1069 333.144,1069C332.644,1069 332.144,1069 331.642,1069C331.142,1069 330.64,1069 330.14,1069C329.638,1069 329.136,1069 328.636,1069C328.134,1069 327.632,1069 327.13,1069C326.628,1069 326.126,1069 325.624,1069C325.122,1069 324.62,1069 324.118,1069C323.614,1069 323.112,1069 322.61,1069C322.106,1069 321.604,1069 321.1,1069C320.598,1069 320.094,1069 319.592,1069C319.088,1069 318.584,1069 318.08,1069C317.578,1069 317.074,1069 316.57,1069C316.066,1069 315.562,1069 315.058,1069C314.554,1069 314.05,1069 313.544,1069C313.04,1069 312.536,1069 312.032,1069C311.528,1069 311.022,1069 310.518,1069C310.012,1069 309.508,1069 309.002,1069C308.498,1069 307.992,1069 307.488,1069C306.982,1069 306.476,1069 305.972,1069C305.466,1069 304.96,1069 304.454,1069C303.948,1069 303.444,1069 302.938,1069C302.432,1069 301.926,1069 301.42,1069C300.914,1069 300.408,1069 299.902,1069C299.396,1069 298.888,1069 298.382,1069C297.876,1069 297.37,1069 296.864,1069C296.356,1069 295.85,1069 295.344,1069C294.838,1069 294.33,1069 293.824,1069C293.316,1069 292.81,1069 292.304,1069C291.796,1069 291.29,1069 290.782,1069C290.276,1069 289.768,1069 289.262,1069C288.754,1069 288.246,1069 287.74,1069C287.232,1069 286.726,1069 286.218,1069C285.71,1069 285.204,1069 284.696,1069C284.188,1069 283.682,1069 283.174,1069C282.666,1069 282.158,1069 281.652,1069C281.144,1069 280.636,1069 280.128,1069C279.62,1069 279.114,1069 278.606,1069C278.098,1069 277.59,1069 277.082,1069C276.576,1069 276.068,1069 275.56,1069C275.052,1069 274.544,1069 274.036,1069C273.528,1069 273.022,1069 272.514,1069C272.006,1069 271.498,1069 270.99,1069C270.482,1069 269.974,1069 269.466,1069C268.96,1069 268.452,1069 267.944,1069C267.436,1069 266.928,1069 266.42,1069C265.912,1069 265.406,1069 264.898,1069C264.39,1069 263.882,1069 263.374,1069C262.866,1069 262.36,1069 261.852,1069C261.344,1069 260.836,1069 260.328,1069C259.822,1069 259.314,1069 258.806,1069C258.298,1069 257.792,1069 257.284,1069C256.776,1069 256.268,1069 255.762,1069C255.254,1069 254.746,1069 254.24,1069C253.732,1069 253.226,1069 252.718,1069C252.21,1069 251.704,1069 251.196,1069C250.69,1069 250.182,1069 249.676,1069C249.168,1069 248.662,1069 248.156,1069C247.648,1069 247.142,1069 246.634,1069C246.128,1069 245.622,1069 245.114,1069C244.608,1069 244.102,1069 243.596,1069C243.09,1069 242.582,1069 242.076,1069C241.57,1069 241.064,1069 240.558,1069C240.052,1069 239.546,1069 239.04,1069C238.534,1069 238.028,1069 237.522,1069C237.016,1069 236.512,1069 236.006,1069C235.5,1069 234.994,1069 234.49,1069C233.984,1069 233.478,1069 232.974,1069C232.468,1069 231.964,1069 231.458,1069C230.954,1069 230.448,1069 229.944,1069C229.44,1069 228.934,1069 228.43,1069C227.926,1069 227.422,1069 226.918,1069C226.412,1069 225.909,1069 225.405,1069C224.901,1069 224.397,1069 223.893,1069C223.389,1069 222.886,1069 222.382,1069C221.879,1069 221.376,1069 220.872,1069C220.369,1069 219.866,1069 219.363,1069C218.86,1069 218.358,1069 217.855,1069C217.352,1069 216.85,1069 216.348,1069C215.845,1069 215.343,1069 214.841,1069C214.339,1069 213.837,1069 213.336,1069C212.834,1069 212.332,1069 211.831,1069C211.33,1069 210.828,1069 210.327,1069C209.826,1069 209.326,1069 208.825,1069C208.324,1069 207.824,1069 207.323,1069C206.823,1069 206.323,1069 205.823,1069C205.323,1069 204.823,1069 204.324,1069C203.824,1069 203.325,1069 202.825,1069C202.326,1069 201.827,1069 201.328,1069C200.829,1069 200.331,1069 199.832,1069C199.334,1069 198.836,1069 198.338,1069C197.839,1069 197.342,1069 196.844,1069C196.346,1069 195.849,1069 195.352,1069C194.854,1069 194.357,1069 193.861,1069C193.364,1069 192.867,1069 192.371,1069C191.875,1069 191.378,1069 190.883,1069C190.387,1069 189.891,1069 189.396,1069C188.9,1069 188.405,1069 187.91,1069C187.415,1069 186.92,1069 186.426,1069C185.931,1069 185.437,1069 184.943,1069C184.449,1069 183.955,1069 183.461,1069C182.968,1069 182.474,1069 181.981,1069C181.488,1069 180.996,1069 180.503,1069C180.01,1069 179.518,1069 179.026,1069C178.534,1069 178.042,1069 177.551,1069C177.059,1069 176.568,1069 176.077,1069C175.586,1069 175.095,1069 174.605,1069C174.114,1069 173.624,1069 173.134,1069C172.644,1069 172.155,1069 171.665,1069C171.176,1069 170.687,1069 170.198,1069C169.709,1069 169.221,1069 168.733,1069C168.244,1069 167.756,1069 167.269,1069C166.781,1069 166.294,1069 165.807,1069C165.32,1069 164.833,1069 164.347,1069C163.86,1069 163.374,1069 162.888,1069C162.402,1069 161.917,1069 161.431,1069C160.946,1069 160.461,1069 159.977,1069C159.492,1069 159.008,1069 158.524,1069C158.04,1069 157.556,1069 157.073,1069C156.59,1069 156.107,1069 155.624,1069C155.141,1069 154.659,1069 154.177,1069C153.695,1069 153.213,1069 152.732,1069C152.25,1069 151.769,1069 151.289,1069C150.808,1069 150.328,1069 149.848,1069C149.368,1069 148.888,1069 148.409,1069C147.929,1069 147.45,1069 146.972,1069C146.493,1069 146.015,1069 145.537,1069C145.059,1069 144.582,1069 144.104,1069C143.627,1069 143.15,1069 142.674,1069C142.197,1069 141.721,1069 141.246,1069C140.77,1069 140.295,1069 139.82,1069C139.345,1069 138.87,1069 138.396,1069C137.922,1069 137.448,1069 136.974,1069C136.501,1069 136.028,1069 135.555,1069C135.082,1069 134.61,1069 134.138,1069C133.666,1069 133.195,1069 132.723,1069C132.252,1069 131.782,1069 131.311,1069C130.841,1069 130.371,1069 129.901,1069C129.432,1069 128.963,1069 128.494,1069C128.025,1069 127.557,1069 127.089,1069C126.621,1069 126.154,1069 125.686,1069C125.219,1069 124.753,1069 124.286,1069C123.82,1069 123.354,1069 122.889,1069C122.424,1069 121.959,1069 121.494,1069C121.029,1069 120.565,1069 120.102,1069C119.638,1069 119.175,1069 118.712,1069C118.249,1069 117.787,1069 117.325,1069C116.863,1069 116.401,1069 115.94,1069C115.479,1069 115.019,1069 114.558,1069C114.098,1069 113.638,1069 113.179,1069C112.72,1069 112.261,1069 111.803,1069C111.344,1069 110.887,1069 110.429,1069C109.972,1069 109.515,1069 109.058,1069C108.602,1069 108.146,1069 107.69,1069C107.235,1069 106.78,1069 106.325,1069C105.87,1069 105.416,1069 104.963,1069C104.509,1069 104.056,1069 103.603,1069C103.15,1069 102.698,1069 102.246,1069C101.795,1069 101.344,1069 100.893,1069C100.442,1069 99.992,1069 99.542,1069C99.092,1069 98.643,1069 98.194,1069C97.746,1069 97.297,1069 96.85,1069C96.402,1069 95.955,1069 95.508,1069C95.061,1069 94.615,1069 94.169,1069C93.724,1069 93.278,1069 92.834,1069C92.389,1069 91.945,1069 91.501,1069C91.058,1069 90.615,1069 90.172,1069C89.729,1069 89.287,1069 88.846,1069C88.404,1069 87.963,1069 87.523,1069C87.082,1069 86.642,1069 86.203,1069C85.764,1069 85.325,1069 84.887,1069C84.448,1069 84.011,1069 83.573,1069C83.136,1069 82.699,1069 82.263,1069C81.827,1069 81.392,1069 80.957,1069C80.522,1069 80.087,1069 79.653,1069C79.219,1069 78.786,1069 78.353,1069C77.921,1069 77.488,1069 77.057,1069C76.625,1069 76.194,1069 75.764,1069C75.333,1069 74.903,1069 74.474,1069C74.045,1069 73.616,1069 73.188,1069C72.76,1069 72.332,1069 71.905,1069C71.478,1069 71.052,1069 70.626,1069C70.2,1069 69.775,1069 69.35,1069C68.925,1069 68.501,1069 68.078,1069C67.654,1069 67.232,1069 66.809,1069C66.387,1069 65.966,1069 65.544,1069C65.123,1069 64.703,1069 64.283,1069C63.863,1069 63.444,1069 63.026,1069C62.607,1069 62.189,1069 61.772,1069C61.354,1069 60.938,1069 60.522,1069C60.105,1069 59.69,1069 59.275,1069C58.86,1069 58.446,1069 58.032,1069C57.619,1069 57.206,1069 56.794,1069C56.381,1069 55.97,1069 55.559,1069C55.147,1069 54.737,1069 54.327,1069C53.918,1069 53.508,1069 53.1,1069C52.692,1069 52.284,1069 51.877,1069C51.469,1069 51.063,1069 50.657,1069C50.251,1069 49.846,1069 49.442,1069C49.037,1069 48.633,1069 48.23,1069C47.827,1069 47.424,1069 47.022,1069C46.621,1069 46.219,1069 45.819,1069C45.418,1069 45.019,1069 44.619,1069C44.22,1069 43.822,1069 43.424,1069C43.026,1069 42.629,1069 42.233,1069C41.836,1069 41.441,1069 41.046,1069C40.651,1069 40.256,1069 39.863,1069C39.469,1069 39.076,1069 38.684,1069C38.292,1069 37.9,1069 37.509,1069C37.118,1069 36.728,1069 36.339,1069C35.949,1069 35.561,1069 35.173,1069C34.785,1069 34.397,1069 34.011,1069C33.624,1069 33.238,1069 32.853,1069C32.468,1069 32.084,1069 31.7,1069C31.316,1069 30.933,1069 30.551,1069C30.169,1069 29.788,1069 29.407,1069C29.026,1069 28.646,1069 28.267,1069C27.887,1069 27.509,1069 27.131,1069C26.753,1069 26.376,1069 26,1069L26,1071ZM621,1071C628.004,1071 632.526,1068.934 635.3,1066.214C638.056,1063.513 639,1060.25 639,1058L637,1058C637,1059.751 636.244,1062.487 633.9,1064.786C631.574,1067.066 627.596,1069 621,1069L621,1071Z" fill="#000000"/>
<line x1="0.003" y1="983" x2="640.003" y2="985" stroke="#000000" stroke-width="1" stroke-miterlimit="3.999327"/>
<line x1="0.003" y1="903" x2="640.003" y2="905" stroke="#000000" stroke-width="1" stroke-miterlimit="3.999327"/>
<line x1="0.003" y1="823" x2="640.003" y2="825" stroke="#000000" stroke-width="1" stroke-miterlimit="3.999327"/>
<line x1="0.003" y1="743" x2="640.003" y2="745" stroke="#000000" stroke-width="1" stroke-miterlimit="3.999327"/>
<line x1="0.003" y1="663" x2="640.003" y2="665" stroke="#000000" stroke-width="1" stroke-miterlimit="3.999327"/>
<line x1="0.003" y1="583" x2="640.003" y2="585" stroke="#000000" stroke-width="1" stroke-miterlimit="3.999327"/>
<line x1="0.003" y1="503" x2="640.003" y2="505" stroke="#000000" stroke-width="1" stroke-miterlimit="3.999327"/>
<line x1="0.003" y1="423" x2="640.003" y2="425" stroke="#000000" stroke-width="1" stroke-miterlimit="3.999327"/>
<line x1="0.003" y1="343" x2="640.003" y2="345" stroke="#000000" stroke-width="1" stroke-miterlimit="3.999327"/>
<line x1="0.003" y1="263" x2="640.003" y2="265" stroke="#000000" stroke-width="1" stroke-miterlimit="3.999327"/>
<line x1="0.003" y1="183" x2="640.003" y2="185" stroke="#000000" stroke-width="1" stroke-miterlimit="3.999327"/>
<line x1="0.003" y1="103" x2="640.003" y2="105" stroke="#000000" stroke-width="1" stroke-miterlimit="3.999327"/>
<line x1="0.003" y1="23" x2="640.003" y2="25" stroke="#000000" stroke-width="1" stroke-miterlimit="3.999327"/>
</svg>
