<svg width="64" height="58" viewBox="0 0 64 58" fill="none" xmlns="http://www.w3.org/2000/svg" xmlns:xlink="http://www.w3.org/1999/xlink">
<path d="M2,24.583L2,23.583L-0.948,23.583L1.392,25.377L2,24.583ZM24.233,24.583L24.233,25.583L24.926,25.583L25.169,24.935L24.233,24.583ZM31.967,4L32.917,3.688L32.03,0.989L31.031,3.648L31.967,4ZM38.733,24.583L37.783,24.896L38.009,25.583L38.733,25.583L38.733,24.583ZM60,24.583L60.651,25.343L62.704,23.583L60,23.583L60,24.583ZM43.567,38.667L42.916,37.907L42.46,38.298L42.591,38.884L43.567,38.667ZM47.433,56L46.944,56.872L48.897,57.966L48.409,55.782L47.433,56ZM31.967,47.333L32.455,46.461L31.994,46.202L31.521,46.438L31.967,47.333ZM14.567,56L13.618,55.683L12.853,57.971L15.012,56.895L14.567,56ZM20.367,38.667L21.315,38.984L21.541,38.307L20.975,37.873L20.367,38.667ZM2,25.583L24.233,25.583L24.233,23.583L2,23.583L2,25.583ZM25.169,24.935L32.903,4.352L31.031,3.648L23.297,24.232L25.169,24.935ZM31.017,4.312L37.783,24.896L39.683,24.271L32.917,3.688L31.017,4.312ZM38.733,25.583L60,25.583L60,23.583L38.733,23.583L38.733,25.583ZM59.349,23.824L42.916,37.907L44.217,39.426L60.651,25.343L59.349,23.824ZM42.591,38.884L46.457,56.218L48.409,55.782L44.543,38.449L42.591,38.884ZM47.922,55.128L32.455,46.461L31.478,48.206L46.944,56.872L47.922,55.128ZM31.521,46.438L14.121,55.105L15.012,56.895L32.413,48.228L31.521,46.438ZM15.515,56.317L21.315,38.984L19.418,38.349L13.618,55.683L15.515,56.317ZM20.975,37.873L2.608,23.79L1.392,25.377L19.758,39.46L20.975,37.873Z" fill="#686868"/>
</svg>
