<svg width="24" height="42" viewBox="0 0 24 42" fill="none" xmlns="http://www.w3.org/2000/svg" xmlns:xlink="http://www.w3.org/1999/xlink">
<path d="M4.828,20L21.416,36.584C21.792,36.959 22.002,37.469 22.002,38C22.002,38.531 21.792,39.04 21.416,39.416C21.04,39.791 20.531,40.002 20,40.002C19.469,40.002 18.96,39.791 18.584,39.416L0.584,21.416C0.398,21.23 0.25,21.009 0.149,20.766C0.048,20.523 -0.004,20.263 -0.004,20C-0.004,19.737 0.048,19.476 0.149,19.233C0.25,18.99 0.398,18.77 0.584,18.584L18.584,0.584C18.96,0.208 19.469,-0.003 20,-0.003C20.531,-0.003 21.04,0.208 21.416,0.584C21.792,0.96 22.002,1.469 22.002,2C22.002,2.531 21.792,3.04 21.416,3.416L4.828,20Z" fill="#000000"/>
</svg>
