<svg width="60" height="56" viewBox="0 0 60 56" fill="none" xmlns="http://www.w3.org/2000/svg" xmlns:xlink="http://www.w3.org/1999/xlink">
<path d="M30.3,45.65L30,45.95L29.67,45.65C15.42,32.72 6,24.17 6,15.5C6,9.5 10.5,5 16.5,5C21.12,5 25.62,8 27.21,12.08L32.79,12.08C34.38,8 38.88,5 43.5,5C49.5,5 54,9.5 54,15.5C54,24.17 44.58,32.72 30.3,45.65ZM43.5,-1C38.28,-1 33.27,1.43 30,5.24C26.73,1.43 21.72,-1 16.5,-1C7.26,-1 0,6.23 0,15.5C0,26.81 10.2,36.08 25.65,50.09L30,54.05L34.35,50.09C49.8,36.08 60,26.81 60,15.5C60,6.23 52.74,-1 43.5,-1Z" fill="#000000"/>
</svg>
