<svg width="640" height="1072" viewBox="0 0 640 1072" fill="none" xmlns="http://www.w3.org/2000/svg" xmlns:xlink="http://www.w3.org/1999/xlink">
<line x1="639" y1="26.137" x2="637.004" y2="1066.137" stroke="#000000" stroke-width="1" stroke-miterlimit="3.999327"/>
<line x1="553" y1="2.135" x2="553" y2="1068.135" stroke="#000000" stroke-width="1" stroke-miterlimit="3.999327"/>
<line x1="465" y1="2.135" x2="465" y2="1068.135" stroke="#000000" stroke-width="1" stroke-miterlimit="3.999327"/>
<line x1="377" y1="2.135" x2="377" y2="1068.135" stroke="#000000" stroke-width="1" stroke-miterlimit="3.999327"/>
<line x1="289" y1="2.135" x2="289" y2="1068.135" stroke="#000000" stroke-width="1" stroke-miterlimit="3.999327"/>
<line x1="201" y1="2.135" x2="201" y2="1068.135" stroke="#000000" stroke-width="1" stroke-miterlimit="3.999327"/>
<line x1="113" y1="0.135" x2="113" y2="1066.135" stroke="#000000" stroke-width="1" stroke-miterlimit="3.999327"/>
<line x1="25" y1="2.135" x2="25" y2="1068.135" stroke="#000000" stroke-width="1" stroke-miterlimit="3.999327"/>
<path d="M26,1071.135C26.376,1071.135 26.753,1071.135 27.131,1071.135C27.509,1071.135 27.887,1071.135 28.267,1071.135C28.646,1071.135 29.026,1071.135 29.407,1071.135C29.788,1071.135 30.169,1071.135 30.551,1071.135C30.933,1071.135 31.316,1071.135 31.7,1071.135C32.084,1071.135 32.468,1071.135 32.853,1071.135C33.238,1071.135 33.624,1071.135 34.011,1071.135C34.397,1071.135 34.785,1071.135 35.173,1071.135C35.561,1071.135 35.949,1071.135 36.339,1071.135C36.728,1071.135 37.118,1071.135 37.509,1071.135C37.9,1071.135 38.292,1071.135 38.684,1071.135C39.076,1071.135 39.469,1071.135 39.863,1071.135C40.256,1071.135 40.651,1071.135 41.046,1071.135C41.441,1071.135 41.836,1071.135 42.233,1071.135C42.629,1071.135 43.026,1071.135 43.424,1071.135C43.822,1071.135 44.22,1071.135 44.619,1071.135C45.019,1071.135 45.418,1071.135 45.819,1071.135C46.219,1071.135 46.621,1071.135 47.022,1071.135C47.424,1071.135 47.827,1071.135 48.23,1071.135C48.633,1071.135 49.037,1071.135 49.442,1071.135C49.846,1071.135 50.251,1071.135 50.657,1071.135C51.063,1071.135 51.469,1071.135 51.877,1071.135C52.284,1071.135 52.692,1071.135 53.1,1071.135C53.508,1071.135 53.918,1071.135 54.327,1071.135C54.737,1071.135 55.147,1071.135 55.559,1071.135C55.97,1071.135 56.381,1071.135 56.794,1071.135C57.206,1071.135 57.619,1071.135 58.032,1071.135C58.446,1071.135 58.86,1071.135 59.275,1071.135C59.69,1071.135 60.105,1071.135 60.522,1071.135C60.938,1071.135 61.354,1071.135 61.772,1071.135C62.189,1071.135 62.607,1071.135 63.026,1071.135C63.444,1071.135 63.863,1071.135 64.283,1071.135C64.703,1071.135 65.123,1071.135 65.544,1071.135C65.966,1071.135 66.387,1071.135 66.809,1071.135C67.232,1071.135 67.654,1071.135 68.078,1071.135C68.501,1071.135 68.925,1071.135 69.35,1071.135C69.775,1071.135 70.2,1071.135 70.626,1071.135C71.052,1071.135 71.478,1071.135 71.905,1071.135C72.332,1071.135 72.76,1071.135 73.188,1071.135C73.616,1071.135 74.045,1071.135 74.474,1071.135C74.903,1071.135 75.333,1071.135 75.764,1071.135C76.194,1071.135 76.625,1071.135 77.057,1071.135C77.488,1071.135 77.921,1071.135 78.353,1071.135C78.786,1071.135 79.219,1071.135 79.653,1071.135C80.087,1071.135 80.522,1071.135 80.957,1071.135C81.392,1071.135 81.827,1071.135 82.263,1071.135C82.699,1071.135 83.136,1071.135 83.573,1071.135C84.011,1071.135 84.448,1071.135 84.887,1071.135C85.325,1071.135 85.764,1071.135 86.203,1071.135C86.642,1071.135 87.082,1071.135 87.523,1071.135C87.963,1071.135 88.404,1071.135 88.846,1071.135C89.287,1071.135 89.729,1071.135 90.172,1071.135C90.615,1071.135 91.058,1071.135 91.501,1071.135C91.945,1071.135 92.389,1071.135 92.834,1071.135C93.278,1071.135 93.724,1071.135 94.169,1071.135C94.615,1071.135 95.061,1071.135 95.508,1071.135C95.955,1071.135 96.402,1071.135 96.85,1071.135C97.297,1071.135 97.746,1071.135 98.194,1071.135C98.643,1071.135 99.092,1071.135 99.542,1071.135C99.992,1071.135 100.442,1071.135 100.893,1071.135C101.344,1071.135 101.795,1071.135 102.246,1071.135C102.698,1071.135 103.15,1071.135 103.603,1071.135C104.056,1071.135 104.509,1071.135 104.963,1071.135C105.416,1071.135 105.87,1071.135 106.325,1071.135C106.78,1071.135 107.235,1071.135 107.69,1071.135C108.146,1071.135 108.602,1071.135 109.058,1071.135C109.515,1071.135 109.972,1071.135 110.429,1071.135C110.887,1071.135 111.344,1071.135 111.803,1071.135C112.261,1071.135 112.72,1071.135 113.179,1071.135C113.638,1071.135 114.098,1071.135 114.558,1071.135C115.019,1071.135 115.479,1071.135 115.94,1071.135C116.401,1071.135 116.863,1071.135 117.325,1071.135C117.787,1071.135 118.249,1071.135 118.712,1071.135C119.175,1071.135 119.638,1071.135 120.102,1071.135C120.565,1071.135 121.029,1071.135 121.494,1071.135C121.959,1071.135 122.424,1071.135 122.889,1071.135C123.354,1071.135 123.82,1071.135 124.286,1071.135C124.753,1071.135 125.219,1071.135 125.686,1071.135C126.154,1071.135 126.621,1071.135 127.089,1071.135C127.557,1071.135 128.025,1071.135 128.494,1071.135C128.963,1071.135 129.432,1071.135 129.901,1071.135C130.371,1071.135 130.841,1071.135 131.311,1071.135C131.782,1071.135 132.252,1071.135 132.723,1071.135C133.195,1071.135 133.666,1071.135 134.138,1071.135C134.61,1071.135 135.082,1071.135 135.555,1071.135C136.028,1071.135 136.501,1071.135 136.974,1071.135C137.448,1071.135 137.922,1071.135 138.396,1071.135C138.87,1071.135 139.345,1071.135 139.82,1071.135C140.295,1071.135 140.77,1071.135 141.246,1071.135C141.721,1071.135 142.197,1071.135 142.674,1071.135C143.15,1071.135 143.627,1071.135 144.104,1071.135C144.582,1071.135 145.059,1071.135 145.537,1071.135C146.015,1071.135 146.493,1071.135 146.972,1071.135C147.45,1071.135 147.929,1071.135 148.409,1071.135C148.888,1071.135 149.368,1071.135 149.848,1071.135C150.328,1071.135 150.808,1071.135 151.289,1071.135C151.769,1071.135 152.25,1071.135 152.732,1071.135C153.213,1071.135 153.695,1071.135 154.177,1071.135C154.659,1071.135 155.141,1071.135 155.624,1071.135C156.107,1071.135 156.59,1071.135 157.073,1071.135C157.556,1071.135 158.04,1071.135 158.524,1071.135C159.008,1071.135 159.492,1071.135 159.977,1071.135C160.461,1071.135 160.946,1071.135 161.431,1071.135C161.917,1071.135 162.402,1071.135 162.888,1071.135C163.374,1071.135 163.86,1071.135 164.347,1071.135C164.833,1071.135 165.32,1071.135 165.807,1071.135C166.294,1071.135 166.781,1071.135 167.269,1071.135C167.756,1071.135 168.244,1071.135 168.733,1071.135C169.221,1071.135 169.709,1071.135 170.198,1071.135C170.687,1071.135 171.176,1071.135 171.665,1071.135C172.155,1071.135 172.644,1071.135 173.134,1071.135C173.624,1071.135 174.114,1071.135 174.605,1071.135C175.095,1071.135 175.586,1071.135 176.077,1071.135C176.568,1071.135 177.059,1071.135 177.551,1071.135C178.042,1071.135 178.534,1071.135 179.026,1071.135C179.518,1071.135 180.01,1071.135 180.503,1071.135C180.996,1071.135 181.488,1071.135 181.981,1071.135C182.474,1071.135 182.968,1071.135 183.461,1071.135C183.955,1071.135 184.449,1071.135 184.943,1071.135C185.437,1071.135 185.931,1071.135 186.426,1071.135C186.92,1071.135 187.415,1071.135 187.91,1071.135C188.405,1071.135 188.9,1071.135 189.396,1071.135C189.891,1071.135 190.387,1071.135 190.883,1071.135C191.378,1071.135 191.875,1071.135 192.371,1071.135C192.867,1071.135 193.364,1071.135 193.861,1071.135C194.357,1071.135 194.854,1071.135 195.352,1071.135C195.849,1071.135 196.346,1071.135 196.844,1071.135C197.342,1071.135 197.839,1071.135 198.338,1071.135C198.836,1071.135 199.334,1071.135 199.832,1071.135C200.331,1071.135 200.829,1071.135 201.328,1071.135C201.827,1071.135 202.326,1071.135 202.825,1071.135C203.325,1071.135 203.824,1071.135 204.324,1071.135C204.823,1071.135 205.323,1071.135 205.823,1071.135C206.323,1071.135 206.823,1071.135 207.323,1071.135C207.824,1071.135 208.324,1071.135 208.825,1071.135C209.326,1071.135 209.826,1071.135 210.327,1071.135C210.828,1071.135 211.33,1071.135 211.831,1071.135C212.332,1071.135 212.834,1071.135 213.336,1071.135C213.837,1071.135 214.339,1071.135 214.841,1071.135C215.343,1071.135 215.845,1071.135 216.348,1071.135C216.85,1071.135 217.352,1071.135 217.855,1071.135C218.358,1071.135 218.86,1071.135 219.363,1071.135C219.866,1071.135 220.369,1071.135 220.872,1071.135C221.376,1071.135 221.879,1071.135 222.382,1071.135C222.886,1071.135 223.389,1071.135 223.893,1071.135C224.397,1071.135 224.901,1071.135 225.405,1071.135C225.909,1071.135 226.412,1071.135 226.918,1071.135C227.422,1071.135 227.926,1071.135 228.43,1071.135C228.934,1071.135 229.44,1071.135 229.944,1071.135C230.448,1071.135 230.954,1071.135 231.458,1071.135C231.964,1071.135 232.468,1071.135 232.974,1071.135C233.478,1071.135 233.984,1071.135 234.49,1071.135C234.994,1071.135 235.5,1071.135 236.006,1071.135C236.512,1071.135 237.016,1071.135 237.522,1071.135C238.028,1071.135 238.534,1071.135 239.04,1071.135C239.546,1071.135 240.052,1071.135 240.558,1071.135C241.064,1071.135 241.57,1071.135 242.076,1071.135C242.582,1071.135 243.09,1071.135 243.596,1071.135C244.102,1071.135 244.608,1071.135 245.114,1071.135C245.622,1071.135 246.128,1071.135 246.634,1071.135C247.142,1071.135 247.648,1071.135 248.156,1071.135C248.662,1071.135 249.168,1071.135 249.676,1071.135C250.182,1071.135 250.69,1071.135 251.196,1071.135C251.704,1071.135 252.21,1071.135 252.718,1071.135C253.226,1071.135 253.732,1071.135 254.24,1071.135C254.746,1071.135 255.254,1071.135 255.762,1071.135C256.268,1071.135 256.776,1071.135 257.284,1071.135C257.792,1071.135 258.298,1071.135 258.806,1071.135C259.314,1071.135 259.822,1071.135 260.328,1071.135C260.836,1071.135 261.344,1071.135 261.852,1071.135C262.36,1071.135 262.866,1071.135 263.374,1071.135C263.882,1071.135 264.39,1071.135 264.898,1071.135C265.406,1071.135 265.912,1071.135 266.42,1071.135C266.928,1071.135 267.436,1071.135 267.944,1071.135C268.452,1071.135 268.96,1071.135 269.466,1071.135C269.974,1071.135 270.482,1071.135 270.99,1071.135C271.498,1071.135 272.006,1071.135 272.514,1071.135C273.022,1071.135 273.528,1071.135 274.036,1071.135C274.544,1071.135 275.052,1071.135 275.56,1071.135C276.068,1071.135 276.576,1071.135 277.082,1071.135C277.59,1071.135 278.098,1071.135 278.606,1071.135C279.114,1071.135 279.62,1071.135 280.128,1071.135C280.636,1071.135 281.144,1071.135 281.652,1071.135C282.158,1071.135 282.666,1071.135 283.174,1071.135C283.682,1071.135 284.188,1071.135 284.696,1071.135C285.204,1071.135 285.71,1071.135 286.218,1071.135C286.726,1071.135 287.232,1071.135 287.74,1071.135C288.246,1071.135 288.754,1071.135 289.262,1071.135C289.768,1071.135 290.276,1071.135 290.782,1071.135C291.29,1071.135 291.796,1071.135 292.304,1071.135C292.81,1071.135 293.316,1071.135 293.824,1071.135C294.33,1071.135 294.838,1071.135 295.344,1071.135C295.85,1071.135 296.356,1071.135 296.864,1071.135C297.37,1071.135 297.876,1071.135 298.382,1071.135C298.888,1071.135 299.396,1071.135 299.902,1071.135C300.408,1071.135 300.914,1071.135 301.42,1071.135C301.926,1071.135 302.432,1071.135 302.938,1071.135C303.444,1071.135 303.948,1071.135 304.454,1071.135C304.96,1071.135 305.466,1071.135 305.972,1071.135C306.476,1071.135 306.982,1071.135 307.488,1071.135C307.992,1071.135 308.498,1071.135 309.002,1071.135C309.508,1071.135 310.012,1071.135 310.518,1071.135C311.022,1071.135 311.528,1071.135 312.032,1071.135C312.536,1071.135 313.04,1071.135 313.544,1071.135C314.05,1071.135 314.554,1071.135 315.058,1071.135C315.562,1071.135 316.066,1071.135 316.57,1071.135C317.074,1071.135 317.578,1071.135 318.08,1071.135C318.584,1071.135 319.088,1071.135 319.592,1071.135C320.094,1071.135 320.598,1071.135 321.1,1071.135C321.604,1071.135 322.106,1071.135 322.61,1071.135C323.112,1071.135 323.614,1071.135 324.118,1071.135C324.62,1071.135 325.122,1071.135 325.624,1071.135C326.126,1071.135 326.628,1071.135 327.13,1071.135C327.632,1071.135 328.134,1071.135 328.636,1071.135C329.136,1071.135 329.638,1071.135 330.14,1071.135C330.64,1071.135 331.142,1071.135 331.642,1071.135C332.144,1071.135 332.644,1071.135 333.144,1071.135C333.644,1071.135 334.146,1071.135 334.646,1071.135C335.146,1071.135 335.646,1071.135 336.146,1071.135C336.646,1071.135 337.144,1071.135 337.644,1071.135C338.144,1071.135 338.642,1071.135 339.142,1071.135C339.64,1071.135 340.14,1071.135 340.638,1071.135C341.136,1071.135 341.636,1071.135 342.134,1071.135C342.632,1071.135 343.13,1071.135 343.628,1071.135C344.126,1071.135 344.624,1071.135 345.12,1071.135C345.618,1071.135 346.116,1071.135 346.612,1071.135C347.11,1071.135 347.606,1071.135 348.102,1071.135C348.6,1071.135 349.096,1071.135 349.592,1071.135C350.088,1071.135 350.584,1071.135 351.08,1071.135C351.576,1071.135 352.07,1071.135 352.566,1071.135C353.06,1071.135 353.556,1071.135 354.05,1071.135C354.546,1071.135 355.04,1071.135 355.534,1071.135C356.028,1071.135 356.522,1071.135 357.016,1071.135C357.51,1071.135 358.004,1071.135 358.498,1071.135C358.99,1071.135 359.484,1071.135 359.976,1071.135C360.47,1071.135 360.962,1071.135 361.454,1071.135C361.946,1071.135 362.438,1071.135 362.93,1071.135C363.422,1071.135 363.914,1071.135 364.404,1071.135C364.896,1071.135 365.386,1071.135 365.878,1071.135C366.368,1071.135 366.858,1071.135 367.348,1071.135C367.84,1071.135 368.328,1071.135 368.818,1071.135C369.308,1071.135 369.798,1071.135 370.286,1071.135C370.776,1071.135 371.264,1071.135 371.752,1071.135C372.242,1071.135 372.73,1071.135 373.218,1071.135C373.706,1071.135 374.194,1071.135 374.68,1071.135C375.168,1071.135 375.654,1071.135 376.142,1071.135C376.628,1071.135 377.114,1071.135 377.6,1071.135C378.088,1071.135 378.572,1071.135 379.058,1071.135C379.544,1071.135 380.03,1071.135 380.514,1071.135C381,1071.135 381.484,1071.135 381.968,1071.135C382.452,1071.135 382.936,1071.135 383.42,1071.135C383.904,1071.135 384.386,1071.135 384.87,1071.135C385.352,1071.135 385.836,1071.135 386.318,1071.135C386.8,1071.135 387.282,1071.135 387.764,1071.135C388.246,1071.135 388.726,1071.135 389.208,1071.135C389.688,1071.135 390.17,1071.135 390.65,1071.135C391.13,1071.135 391.61,1071.135 392.09,1071.135C392.57,1071.135 393.048,1071.135 393.528,1071.135C394.006,1071.135 394.486,1071.135 394.964,1071.135C395.442,1071.135 395.92,1071.135 396.398,1071.135C396.874,1071.135 397.352,1071.135 397.828,1071.135C398.306,1071.135 398.782,1071.135 399.258,1071.135C399.734,1071.135 400.21,1071.135 400.686,1071.135C401.16,1071.135 401.636,1071.135 402.11,1071.135C402.584,1071.135 403.06,1071.135 403.534,1071.135C404.006,1071.135 404.48,1071.135 404.954,1071.135C405.426,1071.135 405.9,1071.135 406.372,1071.135C406.844,1071.135 407.316,1071.135 407.788,1071.135C408.258,1071.135 408.73,1071.135 409.2,1071.135C409.672,1071.135 410.142,1071.135 410.612,1071.135C411.082,1071.135 411.552,1071.135 412.02,1071.135C412.49,1071.135 412.958,1071.135 413.426,1071.135C413.894,1071.135 414.362,1071.135 414.83,1071.135C415.298,1071.135 415.764,1071.135 416.232,1071.135C416.698,1071.135 417.164,1071.135 417.63,1071.135C418.096,1071.135 418.562,1071.135 419.026,1071.135C419.492,1071.135 419.956,1071.135 420.42,1071.135C420.884,1071.135 421.348,1071.135 421.812,1071.135C422.274,1071.135 422.738,1071.135 423.2,1071.135C423.662,1071.135 424.124,1071.135 424.586,1071.135C425.046,1071.135 425.508,1071.135 425.968,1071.135C426.43,1071.135 426.89,1071.135 427.348,1071.135C427.808,1071.135 428.268,1071.135 428.726,1071.135C429.186,1071.135 429.644,1071.135 430.102,1071.135C430.56,1071.135 431.016,1071.135 431.474,1071.135C431.93,1071.135 432.388,1071.135 432.844,1071.135C433.3,1071.135 433.754,1071.135 434.21,1071.135C434.666,1071.135 435.12,1071.135 435.574,1071.135C436.028,1071.135 436.482,1071.135 436.934,1071.135C437.388,1071.135 437.84,1071.135 438.292,1071.135C438.744,1071.135 439.196,1071.135 439.648,1071.135C440.1,1071.135 440.55,1071.135 441,1071.135C441.45,1071.135 441.9,1071.135 442.35,1071.135C442.798,1071.135 443.248,1071.135 443.696,1071.135C444.144,1071.135 444.592,1071.135 445.038,1071.135C445.486,1071.135 445.932,1071.135 446.378,1071.135C446.826,1071.135 447.27,1071.135 447.716,1071.135C448.162,1071.135 448.606,1071.135 449.05,1071.135C449.494,1071.135 449.938,1071.135 450.38,1071.135C450.824,1071.135 451.266,1071.135 451.708,1071.135C452.15,1071.135 452.592,1071.135 453.034,1071.135C453.474,1071.135 453.914,1071.135 454.354,1071.135C454.794,1071.135 455.234,1071.135 455.672,1071.135C456.112,1071.135 456.55,1071.135 456.988,1071.135C457.426,1071.135 457.862,1071.135 458.298,1071.135C458.736,1071.135 459.172,1071.135 459.608,1071.135C460.042,1071.135 460.478,1071.135 460.912,1071.135C461.346,1071.135 461.78,1071.135 462.214,1071.135C462.648,1071.135 463.08,1071.135 463.512,1071.135C463.944,1071.135 464.376,1071.135 464.806,1071.135C465.238,1071.135 465.668,1071.135 466.098,1071.135C466.528,1071.135 466.958,1071.135 467.386,1071.135C467.816,1071.135 468.244,1071.135 468.67,1071.135C469.098,1071.135 469.526,1071.135 469.952,1071.135C470.378,1071.135 470.804,1071.135 471.23,1071.135C471.654,1071.135 472.08,1071.135 472.504,1071.135C472.928,1071.135 473.35,1071.135 473.774,1071.135C474.196,1071.135 474.618,1071.135 475.04,1071.135C475.462,1071.135 475.882,1071.135 476.304,1071.135C476.724,1071.135 477.144,1071.135 477.562,1071.135C477.982,1071.135 478.4,1071.135 478.818,1071.135C479.236,1071.135 479.654,1071.135 480.07,1071.135C480.486,1071.135 480.904,1071.135 481.318,1071.135C481.734,1071.135 482.148,1071.135 482.564,1071.135C482.978,1071.135 483.39,1071.135 483.804,1071.135C484.216,1071.135 484.63,1071.135 485.04,1071.135C485.452,1071.135 485.864,1071.135 486.274,1071.135C486.684,1071.135 487.094,1071.135 487.502,1071.135C487.912,1071.135 488.32,1071.135 488.728,1071.135C489.136,1071.135 489.544,1071.135 489.95,1071.135C490.356,1071.135 490.762,1071.135 491.168,1071.135C491.572,1071.135 491.976,1071.135 492.38,1071.135C492.784,1071.135 493.188,1071.135 493.59,1071.135C493.992,1071.135 494.394,1071.135 494.796,1071.135C495.196,1071.135 495.598,1071.135 495.998,1071.135C496.398,1071.135 496.796,1071.135 497.194,1071.135C497.594,1071.135 497.99,1071.135 498.388,1071.135C498.786,1071.135 499.182,1071.135 499.578,1071.135C499.972,1071.135 500.368,1071.135 500.762,1071.135C501.156,1071.135 501.55,1071.135 501.944,1071.135C502.336,1071.135 502.728,1071.135 503.12,1071.135C503.512,1071.135 503.902,1071.135 504.292,1071.135C504.682,1071.135 505.072,1071.135 505.46,1071.135C505.85,1071.135 506.238,1071.135 506.624,1071.135C507.012,1071.135 507.398,1071.135 507.784,1071.135C508.17,1071.135 508.556,1071.135 508.94,1071.135C509.324,1071.135 509.708,1071.135 510.09,1071.135C510.474,1071.135 510.856,1071.135 511.238,1071.135C511.618,1071.135 512,1071.135 512.38,1071.135C512.76,1071.135 513.138,1071.135 513.518,1071.135C513.896,1071.135 514.274,1071.135 514.65,1071.135C515.028,1071.135 515.404,1071.135 515.78,1071.135C516.154,1071.135 516.53,1071.135 516.904,1071.135C517.278,1071.135 517.652,1071.135 518.024,1071.135C518.396,1071.135 518.768,1071.135 519.138,1071.135C519.51,1071.135 519.88,1071.135 520.25,1071.135C520.618,1071.135 520.988,1071.135 521.356,1071.135C521.724,1071.135 522.09,1071.135 522.458,1071.135C522.824,1071.135 523.19,1071.135 523.554,1071.135C523.918,1071.135 524.282,1071.135 524.646,1071.135C525.01,1071.135 525.372,1071.135 525.734,1071.135C526.096,1071.135 526.456,1071.135 526.816,1071.135C527.176,1071.135 527.536,1071.135 527.894,1071.135C528.252,1071.135 528.61,1071.135 528.968,1071.135C529.324,1071.135 529.68,1071.135 530.036,1071.135C530.392,1071.135 530.746,1071.135 531.1,1071.135C531.454,1071.135 531.806,1071.135 532.158,1071.135C532.51,1071.135 532.862,1071.135 533.212,1071.135C533.562,1071.135 533.912,1071.135 534.26,1071.135C534.61,1071.135 534.958,1071.135 535.304,1071.135C535.652,1071.135 535.998,1071.135 536.344,1071.135C536.69,1071.135 537.034,1071.135 537.378,1071.135C537.722,1071.135 538.064,1071.135 538.406,1071.135C538.748,1071.135 539.09,1071.135 539.43,1071.135C539.772,1071.135 540.11,1071.135 540.45,1071.135C540.788,1071.135 541.126,1071.135 541.464,1071.135C541.8,1071.135 542.136,1071.135 542.472,1071.135C542.808,1071.135 543.142,1071.135 543.476,1071.135C543.81,1071.135 544.142,1071.135 544.474,1071.135C544.806,1071.135 545.136,1071.135 545.468,1071.135C545.798,1071.135 546.126,1071.135 546.456,1071.135C546.784,1071.135 547.112,1071.135 547.438,1071.135C547.764,1071.135 548.09,1071.135 548.416,1071.135C548.74,1071.135 549.064,1071.135 549.388,1071.135C549.71,1071.135 550.032,1071.135 550.354,1071.135C550.676,1071.135 550.996,1071.135 551.316,1071.135C551.636,1071.135 551.954,1071.135 552.272,1071.135C552.59,1071.135 552.906,1071.135 553.222,1071.135C553.538,1071.135 553.854,1071.135 554.168,1071.135C554.482,1071.135 554.796,1071.135 555.108,1071.135C555.42,1071.135 555.732,1071.135 556.042,1071.135C556.354,1071.135 556.662,1071.135 556.972,1071.135C557.28,1071.135 557.588,1071.135 557.894,1071.135C558.202,1071.135 558.508,1071.135 558.812,1071.135C559.118,1071.135 559.422,1071.135 559.724,1071.135C560.028,1071.135 560.33,1071.135 560.632,1071.135C560.932,1071.135 561.234,1071.135 561.532,1071.135C561.832,1071.135 562.13,1071.135 562.428,1071.135C562.726,1071.135 563.022,1071.135 563.318,1071.135C563.614,1071.135 563.908,1071.135 564.202,1071.135C564.496,1071.135 564.788,1071.135 565.08,1071.135C565.372,1071.135 565.662,1071.135 565.952,1071.135C566.242,1071.135 566.532,1071.135 566.82,1071.135C567.108,1071.135 567.394,1071.135 567.68,1071.135C567.966,1071.135 568.252,1071.135 568.536,1071.135C568.82,1071.135 569.102,1071.135 569.386,1071.135C569.668,1071.135 569.948,1071.135 570.228,1071.135C570.508,1071.135 570.788,1071.135 571.066,1071.135C571.344,1071.135 571.622,1071.135 571.898,1071.135C572.174,1071.135 572.448,1071.135 572.724,1071.135C572.998,1071.135 573.27,1071.135 573.542,1071.135C573.816,1071.135 574.086,1071.135 574.356,1071.135C574.626,1071.135 574.896,1071.135 575.164,1071.135C575.432,1071.135 575.7,1071.135 575.966,1071.135C576.232,1071.135 576.496,1071.135 576.762,1071.135C577.026,1071.135 577.288,1071.135 577.55,1071.135C577.812,1071.135 578.074,1071.135 578.334,1071.135C578.594,1071.135 578.852,1071.135 579.11,1071.135C579.368,1071.135 579.626,1071.135 579.882,1071.135C580.138,1071.135 580.392,1071.135 580.646,1071.135C580.9,1071.135 581.152,1071.135 581.404,1071.135C581.656,1071.135 581.908,1071.135 582.156,1071.135C582.406,1071.135 582.656,1071.135 582.902,1071.135C583.15,1071.135 583.396,1071.135 583.642,1071.135C583.888,1071.135 584.132,1071.135 584.376,1071.135C584.618,1071.135 584.862,1071.135 585.102,1071.135C585.344,1071.135 585.584,1071.135 585.822,1071.135C586.062,1071.135 586.3,1071.135 586.536,1071.135C586.774,1071.135 587.01,1071.135 587.244,1071.135C587.48,1071.135 587.712,1071.135 587.946,1071.135C588.178,1071.135 588.41,1071.135 588.64,1071.135C588.87,1071.135 589.1,1071.135 589.328,1071.135C589.556,1071.135 589.784,1071.135 590.01,1071.135C590.236,1071.135 590.462,1071.135 590.684,1071.135C590.908,1071.135 591.132,1071.135 591.354,1071.135C591.576,1071.135 591.796,1071.135 592.016,1071.135C592.234,1071.135 592.454,1071.135 592.67,1071.135C592.888,1071.135 593.104,1071.135 593.318,1071.135C593.534,1071.135 593.748,1071.135 593.96,1071.135C594.174,1071.135 594.386,1071.135 594.596,1071.135C594.806,1071.135 595.016,1071.135 595.224,1071.135C595.432,1071.135 595.64,1071.135 595.846,1071.135C596.052,1071.135 596.256,1071.135 596.46,1071.135C596.664,1071.135 596.866,1071.135 597.068,1071.135C597.27,1071.135 597.47,1071.135 597.67,1071.135C597.868,1071.135 598.066,1071.135 598.264,1071.135C598.46,1071.135 598.656,1071.135 598.85,1071.135C599.046,1071.135 599.238,1071.135 599.432,1071.135C599.624,1071.135 599.814,1071.135 600.004,1071.135C600.194,1071.135 600.384,1071.135 600.572,1071.135C600.758,1071.135 600.946,1071.135 601.13,1071.135C601.316,1071.135 601.5,1071.135 601.682,1071.135C601.866,1071.135 602.048,1071.135 602.228,1071.135C602.408,1071.135 602.588,1071.135 602.766,1071.135C602.944,1071.135 603.122,1071.135 603.298,1071.135C603.474,1071.135 603.648,1071.135 603.822,1071.135C603.996,1071.135 604.168,1071.135 604.338,1071.135C604.51,1071.135 604.68,1071.135 604.848,1071.135C605.018,1071.135 605.184,1071.135 605.35,1071.135C605.518,1071.135 605.682,1071.135 605.846,1071.135C606.01,1071.135 606.172,1071.135 606.334,1071.135C606.496,1071.135 606.656,1071.135 606.814,1071.135C606.974,1071.135 607.132,1071.135 607.288,1071.135C607.444,1071.135 607.6,1071.135 607.754,1071.135C607.908,1071.135 608.062,1071.135 608.214,1071.135C608.364,1071.135 608.516,1071.135 608.664,1071.135C608.814,1071.135 608.962,1071.135 609.108,1071.135C609.256,1071.135 609.4,1071.135 609.544,1071.135C609.69,1071.135 609.832,1071.135 609.974,1071.135C610.116,1071.135 610.256,1071.135 610.396,1071.135C610.534,1071.135 610.672,1071.135 610.81,1071.135C610.946,1071.135 611.082,1071.135 611.216,1071.135C611.35,1071.135 611.484,1071.135 611.614,1071.135C611.746,1071.135 611.878,1071.135 612.006,1071.135C612.136,1071.135 612.264,1071.135 612.39,1071.135C612.516,1071.135 612.642,1071.135 612.766,1071.135C612.89,1071.135 613.012,1071.135 613.134,1071.135C613.256,1071.135 613.376,1071.135 613.496,1071.135C613.614,1071.135 613.732,1071.135 613.848,1071.135C613.964,1071.135 614.08,1071.135 614.194,1071.135C614.308,1071.135 614.42,1071.135 614.53,1071.135C614.642,1071.135 614.752,1071.135 614.86,1071.135C614.97,1071.135 615.076,1071.135 615.182,1071.135C615.288,1071.135 615.394,1071.135 615.496,1071.135C615.6,1071.135 615.702,1071.135 615.802,1071.135C615.904,1071.135 616.002,1071.135 616.1,1071.135C616.198,1071.135 616.296,1071.135 616.392,1071.135C616.486,1071.135 616.58,1071.135 616.674,1071.135C616.766,1071.135 616.858,1071.135 616.948,1071.135C617.038,1071.135 617.126,1071.135 617.214,1071.135C617.302,1071.135 617.388,1071.135 617.472,1071.135C617.558,1071.135 617.64,1071.135 617.724,1071.135C617.806,1071.135 617.886,1071.135 617.966,1071.135C618.044,1071.135 618.122,1071.135 618.2,1071.135C618.276,1071.135 618.352,1071.135 618.426,1071.135C618.5,1071.135 618.572,1071.135 618.644,1071.135C618.714,1071.135 618.784,1071.135 618.854,1071.135C618.922,1071.135 618.988,1071.135 619.054,1071.135C619.12,1071.135 619.184,1071.135 619.248,1071.135C619.31,1071.135 619.372,1071.135 619.432,1071.135C619.494,1071.135 619.552,1071.135 619.61,1071.135C619.668,1071.135 619.724,1071.135 619.778,1071.135C619.832,1071.135 619.886,1071.135 619.938,1071.135C619.99,1071.135 620.04,1071.135 620.09,1071.135C620.14,1071.135 620.186,1071.135 620.234,1071.135C620.28,1071.135 620.324,1071.135 620.368,1071.135C620.412,1071.135 620.454,1071.135 620.494,1071.135C620.536,1071.135 620.574,1071.135 620.612,1071.135C620.65,1071.135 620.688,1071.135 620.722,1071.135C620.758,1071.135 620.792,1071.135 620.824,1071.135C620.856,1071.135 620.886,1071.135 620.916,1071.135C620.946,1071.135 620.974,1071.135 621,1071.135L621,1069.135C620.974,1069.135 620.946,1069.135 620.916,1069.135C620.886,1069.135 620.856,1069.135 620.824,1069.135C620.792,1069.135 620.758,1069.135 620.722,1069.135C620.688,1069.135 620.65,1069.135 620.612,1069.135C620.574,1069.135 620.536,1069.135 620.494,1069.135C620.454,1069.135 620.412,1069.135 620.368,1069.135C620.324,1069.135 620.28,1069.135 620.234,1069.135C620.186,1069.135 620.14,1069.135 620.09,1069.135C620.04,1069.135 619.99,1069.135 619.938,1069.135C619.886,1069.135 619.832,1069.135 619.778,1069.135C619.724,1069.135 619.668,1069.135 619.61,1069.135C619.552,1069.135 619.494,1069.135 619.432,1069.135C619.372,1069.135 619.31,1069.135 619.248,1069.135C619.184,1069.135 619.12,1069.135 619.054,1069.135C618.988,1069.135 618.922,1069.135 618.854,1069.135C618.784,1069.135 618.714,1069.135 618.644,1069.135C618.572,1069.135 618.5,1069.135 618.426,1069.135C618.352,1069.135 618.276,1069.135 618.2,1069.135C618.122,1069.135 618.044,1069.135 617.966,1069.135C617.886,1069.135 617.806,1069.135 617.724,1069.135C617.64,1069.135 617.558,1069.135 617.472,1069.135C617.388,1069.135 617.302,1069.135 617.214,1069.135C617.126,1069.135 617.038,1069.135 616.948,1069.135C616.858,1069.135 616.766,1069.135 616.674,1069.135C616.58,1069.135 616.486,1069.135 616.392,1069.135C616.296,1069.135 616.198,1069.135 616.1,1069.135C616.002,1069.135 615.904,1069.135 615.802,1069.135C615.702,1069.135 615.6,1069.135 615.496,1069.135C615.394,1069.135 615.288,1069.135 615.182,1069.135C615.076,1069.135 614.97,1069.135 614.86,1069.135C614.752,1069.135 614.642,1069.135 614.53,1069.135C614.42,1069.135 614.308,1069.135 614.194,1069.135C614.08,1069.135 613.964,1069.135 613.848,1069.135C613.732,1069.135 613.614,1069.135 613.496,1069.135C613.376,1069.135 613.256,1069.135 613.134,1069.135C613.012,1069.135 612.89,1069.135 612.766,1069.135C612.642,1069.135 612.516,1069.135 612.39,1069.135C612.264,1069.135 612.136,1069.135 612.006,1069.135C611.878,1069.135 611.746,1069.135 611.614,1069.135C611.484,1069.135 611.35,1069.135 611.216,1069.135C611.082,1069.135 610.946,1069.135 610.81,1069.135C610.672,1069.135 610.534,1069.135 610.396,1069.135C610.256,1069.135 610.116,1069.135 609.974,1069.135C609.832,1069.135 609.69,1069.135 609.544,1069.135C609.4,1069.135 609.256,1069.135 609.108,1069.135C608.962,1069.135 608.814,1069.135 608.664,1069.135C608.516,1069.135 608.364,1069.135 608.214,1069.135C608.062,1069.135 607.908,1069.135 607.754,1069.135C607.6,1069.135 607.444,1069.135 607.288,1069.135C607.132,1069.135 606.974,1069.135 606.814,1069.135C606.656,1069.135 606.496,1069.135 606.334,1069.135C606.172,1069.135 606.01,1069.135 605.846,1069.135C605.682,1069.135 605.518,1069.135 605.35,1069.135C605.184,1069.135 605.018,1069.135 604.848,1069.135C604.68,1069.135 604.51,1069.135 604.338,1069.135C604.168,1069.135 603.996,1069.135 603.822,1069.135C603.648,1069.135 603.474,1069.135 603.298,1069.135C603.122,1069.135 602.944,1069.135 602.766,1069.135C602.588,1069.135 602.408,1069.135 602.228,1069.135C602.048,1069.135 601.866,1069.135 601.682,1069.135C601.5,1069.135 601.316,1069.135 601.13,1069.135C600.946,1069.135 600.758,1069.135 600.572,1069.135C600.384,1069.135 600.194,1069.135 600.004,1069.135C599.814,1069.135 599.624,1069.135 599.432,1069.135C599.238,1069.135 599.046,1069.135 598.85,1069.135C598.656,1069.135 598.46,1069.135 598.264,1069.135C598.066,1069.135 597.868,1069.135 597.67,1069.135C597.47,1069.135 597.27,1069.135 597.068,1069.135C596.866,1069.135 596.664,1069.135 596.46,1069.135C596.256,1069.135 596.052,1069.135 595.846,1069.135C595.64,1069.135 595.432,1069.135 595.224,1069.135C595.016,1069.135 594.806,1069.135 594.596,1069.135C594.386,1069.135 594.174,1069.135 593.96,1069.135C593.748,1069.135 593.534,1069.135 593.318,1069.135C593.104,1069.135 592.888,1069.135 592.67,1069.135C592.454,1069.135 592.234,1069.135 592.016,1069.135C591.796,1069.135 591.576,1069.135 591.354,1069.135C591.132,1069.135 590.908,1069.135 590.684,1069.135C590.462,1069.135 590.236,1069.135 590.01,1069.135C589.784,1069.135 589.556,1069.135 589.328,1069.135C589.1,1069.135 588.87,1069.135 588.64,1069.135C588.41,1069.135 588.178,1069.135 587.946,1069.135C587.712,1069.135 587.48,1069.135 587.244,1069.135C587.01,1069.135 586.774,1069.135 586.536,1069.135C586.3,1069.135 586.062,1069.135 585.822,1069.135C585.584,1069.135 585.344,1069.135 585.102,1069.135C584.862,1069.135 584.618,1069.135 584.376,1069.135C584.132,1069.135 583.888,1069.135 583.642,1069.135C583.396,1069.135 583.15,1069.135 582.902,1069.135C582.656,1069.135 582.406,1069.135 582.156,1069.135C581.908,1069.135 581.656,1069.135 581.404,1069.135C581.152,1069.135 580.9,1069.135 580.646,1069.135C580.392,1069.135 580.138,1069.135 579.882,1069.135C579.626,1069.135 579.368,1069.135 579.11,1069.135C578.852,1069.135 578.594,1069.135 578.334,1069.135C578.074,1069.135 577.812,1069.135 577.55,1069.135C577.288,1069.135 577.026,1069.135 576.762,1069.135C576.496,1069.135 576.232,1069.135 575.966,1069.135C575.7,1069.135 575.432,1069.135 575.164,1069.135C574.896,1069.135 574.626,1069.135 574.356,1069.135C574.086,1069.135 573.816,1069.135 573.542,1069.135C573.27,1069.135 572.998,1069.135 572.724,1069.135C572.448,1069.135 572.174,1069.135 571.898,1069.135C571.622,1069.135 571.344,1069.135 571.066,1069.135C570.788,1069.135 570.508,1069.135 570.228,1069.135C569.948,1069.135 569.668,1069.135 569.386,1069.135C569.102,1069.135 568.82,1069.135 568.536,1069.135C568.252,1069.135 567.966,1069.135 567.68,1069.135C567.394,1069.135 567.108,1069.135 566.82,1069.135C566.532,1069.135 566.242,1069.135 565.952,1069.135C565.662,1069.135 565.372,1069.135 565.08,1069.135C564.788,1069.135 564.496,1069.135 564.202,1069.135C563.908,1069.135 563.614,1069.135 563.318,1069.135C563.022,1069.135 562.726,1069.135 562.428,1069.135C562.13,1069.135 561.832,1069.135 561.532,1069.135C561.234,1069.135 560.932,1069.135 560.632,1069.135C560.33,1069.135 560.028,1069.135 559.724,1069.135C559.422,1069.135 559.118,1069.135 558.812,1069.135C558.508,1069.135 558.202,1069.135 557.894,1069.135C557.588,1069.135 557.28,1069.135 556.972,1069.135C556.662,1069.135 556.354,1069.135 556.042,1069.135C555.732,1069.135 555.42,1069.135 555.108,1069.135C554.796,1069.135 554.482,1069.135 554.168,1069.135C553.854,1069.135 553.538,1069.135 553.222,1069.135C552.906,1069.135 552.59,1069.135 552.272,1069.135C551.954,1069.135 551.636,1069.135 551.316,1069.135C550.996,1069.135 550.676,1069.135 550.354,1069.135C550.032,1069.135 549.71,1069.135 549.388,1069.135C549.064,1069.135 548.74,1069.135 548.416,1069.135C548.09,1069.135 547.764,1069.135 547.438,1069.135C547.112,1069.135 546.784,1069.135 546.456,1069.135C546.126,1069.135 545.798,1069.135 545.468,1069.135C545.136,1069.135 544.806,1069.135 544.474,1069.135C544.142,1069.135 543.81,1069.135 543.476,1069.135C543.142,1069.135 542.808,1069.135 542.472,1069.135C542.136,1069.135 541.8,1069.135 541.464,1069.135C541.126,1069.135 540.788,1069.135 540.45,1069.135C540.11,1069.135 539.772,1069.135 539.43,1069.135C539.09,1069.135 538.748,1069.135 538.406,1069.135C538.064,1069.135 537.722,1069.135 537.378,1069.135C537.034,1069.135 536.69,1069.135 536.344,1069.135C535.998,1069.135 535.652,1069.135 535.304,1069.135C534.958,1069.135 534.61,1069.135 534.26,1069.135C533.912,1069.135 533.562,1069.135 533.212,1069.135C532.862,1069.135 532.51,1069.135 532.158,1069.135C531.806,1069.135 531.454,1069.135 531.1,1069.135C530.746,1069.135 530.392,1069.135 530.036,1069.135C529.68,1069.135 529.324,1069.135 528.968,1069.135C528.61,1069.135 528.252,1069.135 527.894,1069.135C527.536,1069.135 527.176,1069.135 526.816,1069.135C526.456,1069.135 526.096,1069.135 525.734,1069.135C525.372,1069.135 525.01,1069.135 524.646,1069.135C524.282,1069.135 523.918,1069.135 523.554,1069.135C523.19,1069.135 522.824,1069.135 522.458,1069.135C522.09,1069.135 521.724,1069.135 521.356,1069.135C520.988,1069.135 520.618,1069.135 520.25,1069.135C519.88,1069.135 519.51,1069.135 519.138,1069.135C518.768,1069.135 518.396,1069.135 518.024,1069.135C517.652,1069.135 517.278,1069.135 516.904,1069.135C516.53,1069.135 516.154,1069.135 515.78,1069.135C515.404,1069.135 515.028,1069.135 514.65,1069.135C514.274,1069.135 513.896,1069.135 513.518,1069.135C513.138,1069.135 512.76,1069.135 512.38,1069.135C512,1069.135 511.618,1069.135 511.238,1069.135C510.856,1069.135 510.474,1069.135 510.09,1069.135C509.708,1069.135 509.324,1069.135 508.94,1069.135C508.556,1069.135 508.17,1069.135 507.784,1069.135C507.398,1069.135 507.012,1069.135 506.624,1069.135C506.238,1069.135 505.85,1069.135 505.46,1069.135C505.072,1069.135 504.682,1069.135 504.292,1069.135C503.902,1069.135 503.512,1069.135 503.12,1069.135C502.728,1069.135 502.336,1069.135 501.944,1069.135C501.55,1069.135 501.156,1069.135 500.762,1069.135C500.368,1069.135 499.972,1069.135 499.578,1069.135C499.182,1069.135 498.786,1069.135 498.388,1069.135C497.99,1069.135 497.594,1069.135 497.194,1069.135C496.796,1069.135 496.398,1069.135 495.998,1069.135C495.598,1069.135 495.196,1069.135 494.796,1069.135C494.394,1069.135 493.992,1069.135 493.59,1069.135C493.188,1069.135 492.784,1069.135 492.38,1069.135C491.976,1069.135 491.572,1069.135 491.168,1069.135C490.762,1069.135 490.356,1069.135 489.95,1069.135C489.544,1069.135 489.136,1069.135 488.728,1069.135C488.32,1069.135 487.912,1069.135 487.502,1069.135C487.094,1069.135 486.684,1069.135 486.274,1069.135C485.864,1069.135 485.452,1069.135 485.04,1069.135C484.63,1069.135 484.216,1069.135 483.804,1069.135C483.39,1069.135 482.978,1069.135 482.564,1069.135C482.148,1069.135 481.734,1069.135 481.318,1069.135C480.904,1069.135 480.486,1069.135 480.07,1069.135C479.654,1069.135 479.236,1069.135 478.818,1069.135C478.4,1069.135 477.982,1069.135 477.562,1069.135C477.144,1069.135 476.724,1069.135 476.304,1069.135C475.882,1069.135 475.462,1069.135 475.04,1069.135C474.618,1069.135 474.196,1069.135 473.774,1069.135C473.35,1069.135 472.928,1069.135 472.504,1069.135C472.08,1069.135 471.654,1069.135 471.23,1069.135C470.804,1069.135 470.378,1069.135 469.952,1069.135C469.526,1069.135 469.098,1069.135 468.67,1069.135C468.244,1069.135 467.816,1069.135 467.386,1069.135C466.958,1069.135 466.528,1069.135 466.098,1069.135C465.668,1069.135 465.238,1069.135 464.806,1069.135C464.376,1069.135 463.944,1069.135 463.512,1069.135C463.08,1069.135 462.648,1069.135 462.214,1069.135C461.78,1069.135 461.346,1069.135 460.912,1069.135C460.478,1069.135 460.042,1069.135 459.608,1069.135C459.172,1069.135 458.736,1069.135 458.298,1069.135C457.862,1069.135 457.426,1069.135 456.988,1069.135C456.55,1069.135 456.112,1069.135 455.672,1069.135C455.234,1069.135 454.794,1069.135 454.354,1069.135C453.914,1069.135 453.474,1069.135 453.034,1069.135C452.592,1069.135 452.15,1069.135 451.708,1069.135C451.266,1069.135 450.824,1069.135 450.38,1069.135C449.938,1069.135 449.494,1069.135 449.05,1069.135C448.606,1069.135 448.162,1069.135 447.716,1069.135C447.27,1069.135 446.826,1069.135 446.378,1069.135C445.932,1069.135 445.486,1069.135 445.038,1069.135C444.592,1069.135 444.144,1069.135 443.696,1069.135C443.248,1069.135 442.798,1069.135 442.35,1069.135C441.9,1069.135 441.45,1069.135 441,1069.135C440.55,1069.135 440.1,1069.135 439.648,1069.135C439.196,1069.135 438.744,1069.135 438.292,1069.135C437.84,1069.135 437.388,1069.135 436.934,1069.135C436.482,1069.135 436.028,1069.135 435.574,1069.135C435.12,1069.135 434.666,1069.135 434.21,1069.135C433.754,1069.135 433.3,1069.135 432.844,1069.135C432.388,1069.135 431.93,1069.135 431.474,1069.135C431.016,1069.135 430.56,1069.135 430.102,1069.135C429.644,1069.135 429.186,1069.135 428.726,1069.135C428.268,1069.135 427.808,1069.135 427.348,1069.135C426.89,1069.135 426.43,1069.135 425.968,1069.135C425.508,1069.135 425.046,1069.135 424.586,1069.135C424.124,1069.135 423.662,1069.135 423.2,1069.135C422.738,1069.135 422.274,1069.135 421.812,1069.135C421.348,1069.135 420.884,1069.135 420.42,1069.135C419.956,1069.135 419.492,1069.135 419.026,1069.135C418.562,1069.135 418.096,1069.135 417.63,1069.135C417.164,1069.135 416.698,1069.135 416.232,1069.135C415.764,1069.135 415.298,1069.135 414.83,1069.135C414.362,1069.135 413.894,1069.135 413.426,1069.135C412.958,1069.135 412.49,1069.135 412.02,1069.135C411.552,1069.135 411.082,1069.135 410.612,1069.135C410.142,1069.135 409.672,1069.135 409.2,1069.135C408.73,1069.135 408.258,1069.135 407.788,1069.135C407.316,1069.135 406.844,1069.135 406.372,1069.135C405.9,1069.135 405.426,1069.135 404.954,1069.135C404.48,1069.135 404.006,1069.135 403.534,1069.135C403.06,1069.135 402.584,1069.135 402.11,1069.135C401.636,1069.135 401.16,1069.135 400.686,1069.135C400.21,1069.135 399.734,1069.135 399.258,1069.135C398.782,1069.135 398.306,1069.135 397.828,1069.135C397.352,1069.135 396.874,1069.135 396.398,1069.135C395.92,1069.135 395.442,1069.135 394.964,1069.135C394.486,1069.135 394.006,1069.135 393.528,1069.135C393.048,1069.135 392.57,1069.135 392.09,1069.135C391.61,1069.135 391.13,1069.135 390.65,1069.135C390.17,1069.135 389.688,1069.135 389.208,1069.135C388.726,1069.135 388.246,1069.135 387.764,1069.135C387.282,1069.135 386.8,1069.135 386.318,1069.135C385.836,1069.135 385.352,1069.135 384.87,1069.135C384.386,1069.135 383.904,1069.135 383.42,1069.135C382.936,1069.135 382.452,1069.135 381.968,1069.135C381.484,1069.135 381,1069.135 380.514,1069.135C380.03,1069.135 379.544,1069.135 379.058,1069.135C378.572,1069.135 378.088,1069.135 377.6,1069.135C377.114,1069.135 376.628,1069.135 376.142,1069.135C375.654,1069.135 375.168,1069.135 374.68,1069.135C374.194,1069.135 373.706,1069.135 373.218,1069.135C372.73,1069.135 372.242,1069.135 371.752,1069.135C371.264,1069.135 370.776,1069.135 370.286,1069.135C369.798,1069.135 369.308,1069.135 368.818,1069.135C368.328,1069.135 367.84,1069.135 367.348,1069.135C366.858,1069.135 366.368,1069.135 365.878,1069.135C365.386,1069.135 364.896,1069.135 364.404,1069.135C363.914,1069.135 363.422,1069.135 362.93,1069.135C362.438,1069.135 361.946,1069.135 361.454,1069.135C360.962,1069.135 360.47,1069.135 359.976,1069.135C359.484,1069.135 358.99,1069.135 358.498,1069.135C358.004,1069.135 357.51,1069.135 357.016,1069.135C356.522,1069.135 356.028,1069.135 355.534,1069.135C355.04,1069.135 354.546,1069.135 354.05,1069.135C353.556,1069.135 353.06,1069.135 352.566,1069.135C352.07,1069.135 351.576,1069.135 351.08,1069.135C350.584,1069.135 350.088,1069.135 349.592,1069.135C349.096,1069.135 348.6,1069.135 348.102,1069.135C347.606,1069.135 347.11,1069.135 346.612,1069.135C346.116,1069.135 345.618,1069.135 345.12,1069.135C344.624,1069.135 344.126,1069.135 343.628,1069.135C343.13,1069.135 342.632,1069.135 342.134,1069.135C341.636,1069.135 341.136,1069.135 340.638,1069.135C340.14,1069.135 339.64,1069.135 339.142,1069.135C338.642,1069.135 338.144,1069.135 337.644,1069.135C337.144,1069.135 336.646,1069.135 336.146,1069.135C335.646,1069.135 335.146,1069.135 334.646,1069.135C334.146,1069.135 333.644,1069.135 333.144,1069.135C332.644,1069.135 332.144,1069.135 331.642,1069.135C331.142,1069.135 330.64,1069.135 330.14,1069.135C329.638,1069.135 329.136,1069.135 328.636,1069.135C328.134,1069.135 327.632,1069.135 327.13,1069.135C326.628,1069.135 326.126,1069.135 325.624,1069.135C325.122,1069.135 324.62,1069.135 324.118,1069.135C323.614,1069.135 323.112,1069.135 322.61,1069.135C322.106,1069.135 321.604,1069.135 321.1,1069.135C320.598,1069.135 320.094,1069.135 319.592,1069.135C319.088,1069.135 318.584,1069.135 318.08,1069.135C317.578,1069.135 317.074,1069.135 316.57,1069.135C316.066,1069.135 315.562,1069.135 315.058,1069.135C314.554,1069.135 314.05,1069.135 313.544,1069.135C313.04,1069.135 312.536,1069.135 312.032,1069.135C311.528,1069.135 311.022,1069.135 310.518,1069.135C310.012,1069.135 309.508,1069.135 309.002,1069.135C308.498,1069.135 307.992,1069.135 307.488,1069.135C306.982,1069.135 306.476,1069.135 305.972,1069.135C305.466,1069.135 304.96,1069.135 304.454,1069.135C303.948,1069.135 303.444,1069.135 302.938,1069.135C302.432,1069.135 301.926,1069.135 301.42,1069.135C300.914,1069.135 300.408,1069.135 299.902,1069.135C299.396,1069.135 298.888,1069.135 298.382,1069.135C297.876,1069.135 297.37,1069.135 296.864,1069.135C296.356,1069.135 295.85,1069.135 295.344,1069.135C294.838,1069.135 294.33,1069.135 293.824,1069.135C293.316,1069.135 292.81,1069.135 292.304,1069.135C291.796,1069.135 291.29,1069.135 290.782,1069.135C290.276,1069.135 289.768,1069.135 289.262,1069.135C288.754,1069.135 288.246,1069.135 287.74,1069.135C287.232,1069.135 286.726,1069.135 286.218,1069.135C285.71,1069.135 285.204,1069.135 284.696,1069.135C284.188,1069.135 283.682,1069.135 283.174,1069.135C282.666,1069.135 282.158,1069.135 281.652,1069.135C281.144,1069.135 280.636,1069.135 280.128,1069.135C279.62,1069.135 279.114,1069.135 278.606,1069.135C278.098,1069.135 277.59,1069.135 277.082,1069.135C276.576,1069.135 276.068,1069.135 275.56,1069.135C275.052,1069.135 274.544,1069.135 274.036,1069.135C273.528,1069.135 273.022,1069.135 272.514,1069.135C272.006,1069.135 271.498,1069.135 270.99,1069.135C270.482,1069.135 269.974,1069.135 269.466,1069.135C268.96,1069.135 268.452,1069.135 267.944,1069.135C267.436,1069.135 266.928,1069.135 266.42,1069.135C265.912,1069.135 265.406,1069.135 264.898,1069.135C264.39,1069.135 263.882,1069.135 263.374,1069.135C262.866,1069.135 262.36,1069.135 261.852,1069.135C261.344,1069.135 260.836,1069.135 260.328,1069.135C259.822,1069.135 259.314,1069.135 258.806,1069.135C258.298,1069.135 257.792,1069.135 257.284,1069.135C256.776,1069.135 256.268,1069.135 255.762,1069.135C255.254,1069.135 254.746,1069.135 254.24,1069.135C253.732,1069.135 253.226,1069.135 252.718,1069.135C252.21,1069.135 251.704,1069.135 251.196,1069.135C250.69,1069.135 250.182,1069.135 249.676,1069.135C249.168,1069.135 248.662,1069.135 248.156,1069.135C247.648,1069.135 247.142,1069.135 246.634,1069.135C246.128,1069.135 245.622,1069.135 245.114,1069.135C244.608,1069.135 244.102,1069.135 243.596,1069.135C243.09,1069.135 242.582,1069.135 242.076,1069.135C241.57,1069.135 241.064,1069.135 240.558,1069.135C240.052,1069.135 239.546,1069.135 239.04,1069.135C238.534,1069.135 238.028,1069.135 237.522,1069.135C237.016,1069.135 236.512,1069.135 236.006,1069.135C235.5,1069.135 234.994,1069.135 234.49,1069.135C233.984,1069.135 233.478,1069.135 232.974,1069.135C232.468,1069.135 231.964,1069.135 231.458,1069.135C230.954,1069.135 230.448,1069.135 229.944,1069.135C229.44,1069.135 228.934,1069.135 228.43,1069.135C227.926,1069.135 227.422,1069.135 226.918,1069.135C226.412,1069.135 225.909,1069.135 225.405,1069.135C224.901,1069.135 224.397,1069.135 223.893,1069.135C223.389,1069.135 222.886,1069.135 222.382,1069.135C221.879,1069.135 221.376,1069.135 220.872,1069.135C220.369,1069.135 219.866,1069.135 219.363,1069.135C218.86,1069.135 218.358,1069.135 217.855,1069.135C217.352,1069.135 216.85,1069.135 216.348,1069.135C215.845,1069.135 215.343,1069.135 214.841,1069.135C214.339,1069.135 213.837,1069.135 213.336,1069.135C212.834,1069.135 212.332,1069.135 211.831,1069.135C211.33,1069.135 210.828,1069.135 210.327,1069.135C209.826,1069.135 209.326,1069.135 208.825,1069.135C208.324,1069.135 207.824,1069.135 207.323,1069.135C206.823,1069.135 206.323,1069.135 205.823,1069.135C205.323,1069.135 204.823,1069.135 204.324,1069.135C203.824,1069.135 203.325,1069.135 202.825,1069.135C202.326,1069.135 201.827,1069.135 201.328,1069.135C200.829,1069.135 200.331,1069.135 199.832,1069.135C199.334,1069.135 198.836,1069.135 198.338,1069.135C197.839,1069.135 197.342,1069.135 196.844,1069.135C196.346,1069.135 195.849,1069.135 195.352,1069.135C194.854,1069.135 194.357,1069.135 193.861,1069.135C193.364,1069.135 192.867,1069.135 192.371,1069.135C191.875,1069.135 191.378,1069.135 190.883,1069.135C190.387,1069.135 189.891,1069.135 189.396,1069.135C188.9,1069.135 188.405,1069.135 187.91,1069.135C187.415,1069.135 186.92,1069.135 186.426,1069.135C185.931,1069.135 185.437,1069.135 184.943,1069.135C184.449,1069.135 183.955,1069.135 183.461,1069.135C182.968,1069.135 182.474,1069.135 181.981,1069.135C181.488,1069.135 180.996,1069.135 180.503,1069.135C180.01,1069.135 179.518,1069.135 179.026,1069.135C178.534,1069.135 178.042,1069.135 177.551,1069.135C177.059,1069.135 176.568,1069.135 176.077,1069.135C175.586,1069.135 175.095,1069.135 174.605,1069.135C174.114,1069.135 173.624,1069.135 173.134,1069.135C172.644,1069.135 172.155,1069.135 171.665,1069.135C171.176,1069.135 170.687,1069.135 170.198,1069.135C169.709,1069.135 169.221,1069.135 168.733,1069.135C168.244,1069.135 167.756,1069.135 167.269,1069.135C166.781,1069.135 166.294,1069.135 165.807,1069.135C165.32,1069.135 164.833,1069.135 164.347,1069.135C163.86,1069.135 163.374,1069.135 162.888,1069.135C162.402,1069.135 161.917,1069.135 161.431,1069.135C160.946,1069.135 160.461,1069.135 159.977,1069.135C159.492,1069.135 159.008,1069.135 158.524,1069.135C158.04,1069.135 157.556,1069.135 157.073,1069.135C156.59,1069.135 156.107,1069.135 155.624,1069.135C155.141,1069.135 154.659,1069.135 154.177,1069.135C153.695,1069.135 153.213,1069.135 152.732,1069.135C152.25,1069.135 151.769,1069.135 151.289,1069.135C150.808,1069.135 150.328,1069.135 149.848,1069.135C149.368,1069.135 148.888,1069.135 148.409,1069.135C147.929,1069.135 147.45,1069.135 146.972,1069.135C146.493,1069.135 146.015,1069.135 145.537,1069.135C145.059,1069.135 144.582,1069.135 144.104,1069.135C143.627,1069.135 143.15,1069.135 142.674,1069.135C142.197,1069.135 141.721,1069.135 141.246,1069.135C140.77,1069.135 140.295,1069.135 139.82,1069.135C139.345,1069.135 138.87,1069.135 138.396,1069.135C137.922,1069.135 137.448,1069.135 136.974,1069.135C136.501,1069.135 136.028,1069.135 135.555,1069.135C135.082,1069.135 134.61,1069.135 134.138,1069.135C133.666,1069.135 133.195,1069.135 132.723,1069.135C132.252,1069.135 131.782,1069.135 131.311,1069.135C130.841,1069.135 130.371,1069.135 129.901,1069.135C129.432,1069.135 128.963,1069.135 128.494,1069.135C128.025,1069.135 127.557,1069.135 127.089,1069.135C126.621,1069.135 126.154,1069.135 125.686,1069.135C125.219,1069.135 124.753,1069.135 124.286,1069.135C123.82,1069.135 123.354,1069.135 122.889,1069.135C122.424,1069.135 121.959,1069.135 121.494,1069.135C121.029,1069.135 120.565,1069.135 120.102,1069.135C119.638,1069.135 119.175,1069.135 118.712,1069.135C118.249,1069.135 117.787,1069.135 117.325,1069.135C116.863,1069.135 116.401,1069.135 115.94,1069.135C115.479,1069.135 115.019,1069.135 114.558,1069.135C114.098,1069.135 113.638,1069.135 113.179,1069.135C112.72,1069.135 112.261,1069.135 111.803,1069.135C111.344,1069.135 110.887,1069.135 110.429,1069.135C109.972,1069.135 109.515,1069.135 109.058,1069.135C108.602,1069.135 108.146,1069.135 107.69,1069.135C107.235,1069.135 106.78,1069.135 106.325,1069.135C105.87,1069.135 105.416,1069.135 104.963,1069.135C104.509,1069.135 104.056,1069.135 103.603,1069.135C103.15,1069.135 102.698,1069.135 102.246,1069.135C101.795,1069.135 101.344,1069.135 100.893,1069.135C100.442,1069.135 99.992,1069.135 99.542,1069.135C99.092,1069.135 98.643,1069.135 98.194,1069.135C97.746,1069.135 97.297,1069.135 96.85,1069.135C96.402,1069.135 95.955,1069.135 95.508,1069.135C95.061,1069.135 94.615,1069.135 94.169,1069.135C93.724,1069.135 93.278,1069.135 92.834,1069.135C92.389,1069.135 91.945,1069.135 91.501,1069.135C91.058,1069.135 90.615,1069.135 90.172,1069.135C89.729,1069.135 89.287,1069.135 88.846,1069.135C88.404,1069.135 87.963,1069.135 87.523,1069.135C87.082,1069.135 86.642,1069.135 86.203,1069.135C85.764,1069.135 85.325,1069.135 84.887,1069.135C84.448,1069.135 84.011,1069.135 83.573,1069.135C83.136,1069.135 82.699,1069.135 82.263,1069.135C81.827,1069.135 81.392,1069.135 80.957,1069.135C80.522,1069.135 80.087,1069.135 79.653,1069.135C79.219,1069.135 78.786,1069.135 78.353,1069.135C77.921,1069.135 77.488,1069.135 77.057,1069.135C76.625,1069.135 76.194,1069.135 75.764,1069.135C75.333,1069.135 74.903,1069.135 74.474,1069.135C74.045,1069.135 73.616,1069.135 73.188,1069.135C72.76,1069.135 72.332,1069.135 71.905,1069.135C71.478,1069.135 71.052,1069.135 70.626,1069.135C70.2,1069.135 69.775,1069.135 69.35,1069.135C68.925,1069.135 68.501,1069.135 68.078,1069.135C67.654,1069.135 67.232,1069.135 66.809,1069.135C66.387,1069.135 65.966,1069.135 65.544,1069.135C65.123,1069.135 64.703,1069.135 64.283,1069.135C63.863,1069.135 63.444,1069.135 63.026,1069.135C62.607,1069.135 62.189,1069.135 61.772,1069.135C61.354,1069.135 60.938,1069.135 60.522,1069.135C60.105,1069.135 59.69,1069.135 59.275,1069.135C58.86,1069.135 58.446,1069.135 58.032,1069.135C57.619,1069.135 57.206,1069.135 56.794,1069.135C56.381,1069.135 55.97,1069.135 55.559,1069.135C55.147,1069.135 54.737,1069.135 54.327,1069.135C53.918,1069.135 53.508,1069.135 53.1,1069.135C52.692,1069.135 52.284,1069.135 51.877,1069.135C51.469,1069.135 51.063,1069.135 50.657,1069.135C50.251,1069.135 49.846,1069.135 49.442,1069.135C49.037,1069.135 48.633,1069.135 48.23,1069.135C47.827,1069.135 47.424,1069.135 47.022,1069.135C46.621,1069.135 46.219,1069.135 45.819,1069.135C45.418,1069.135 45.019,1069.135 44.619,1069.135C44.22,1069.135 43.822,1069.135 43.424,1069.135C43.026,1069.135 42.629,1069.135 42.233,1069.135C41.836,1069.135 41.441,1069.135 41.046,1069.135C40.651,1069.135 40.256,1069.135 39.863,1069.135C39.469,1069.135 39.076,1069.135 38.684,1069.135C38.292,1069.135 37.9,1069.135 37.509,1069.135C37.118,1069.135 36.728,1069.135 36.339,1069.135C35.949,1069.135 35.561,1069.135 35.173,1069.135C34.785,1069.135 34.397,1069.135 34.011,1069.135C33.624,1069.135 33.238,1069.135 32.853,1069.135C32.468,1069.135 32.084,1069.135 31.7,1069.135C31.316,1069.135 30.933,1069.135 30.551,1069.135C30.169,1069.135 29.788,1069.135 29.407,1069.135C29.026,1069.135 28.646,1069.135 28.267,1069.135C27.887,1069.135 27.509,1069.135 27.131,1069.135C26.753,1069.135 26.376,1069.135 26,1069.135L26,1071.135ZM621,1071.135C628.004,1071.135 632.526,1069.07 635.3,1066.349C638.056,1063.648 639,1060.385 639,1058.135L637,1058.135C637,1059.886 636.244,1062.622 633.9,1064.921C631.574,1067.201 627.596,1069.135 621,1069.135L621,1071.135Z" fill="#000000"/>
<line x1="0.003" y1="983.136" x2="640.003" y2="985.136" stroke="#000000" stroke-width="1" stroke-miterlimit="3.999327"/>
<line x1="0.003" y1="903.136" x2="640.003" y2="905.136" stroke="#000000" stroke-width="1" stroke-miterlimit="3.999327"/>
<line x1="0.003" y1="823.136" x2="640.003" y2="825.136" stroke="#000000" stroke-width="1" stroke-miterlimit="3.999327"/>
<line x1="0.003" y1="743.136" x2="640.003" y2="745.136" stroke="#000000" stroke-width="1" stroke-miterlimit="3.999327"/>
<line x1="0.003" y1="663.136" x2="640.003" y2="665.136" stroke="#000000" stroke-width="1" stroke-miterlimit="3.999327"/>
<line x1="0.003" y1="583.136" x2="640.003" y2="585.136" stroke="#000000" stroke-width="1" stroke-miterlimit="3.999327"/>
<line x1="0.003" y1="503.135" x2="640.003" y2="505.135" stroke="#000000" stroke-width="1" stroke-miterlimit="3.999327"/>
<line x1="0.003" y1="423.135" x2="640.003" y2="425.135" stroke="#000000" stroke-width="1" stroke-miterlimit="3.999327"/>
<line x1="0.003" y1="343.135" x2="640.003" y2="345.135" stroke="#000000" stroke-width="1" stroke-miterlimit="3.999327"/>
<line x1="0.003" y1="263.135" x2="640.003" y2="265.135" stroke="#000000" stroke-width="1" stroke-miterlimit="3.999327"/>
<line x1="0.003" y1="183.135" x2="640.003" y2="185.135" stroke="#000000" stroke-width="1" stroke-miterlimit="3.999327"/>
<line x1="0.003" y1="103.135" x2="640.003" y2="105.135" stroke="#000000" stroke-width="1" stroke-miterlimit="3.999327"/>
<line x1="0.003" y1="23.135" x2="640.003" y2="25.135" stroke="#000000" stroke-width="1" stroke-miterlimit="3.999327"/>
</svg>
