<svg width="720" height="302" viewBox="0 0 720 302" fill="none" xmlns="http://www.w3.org/2000/svg" xmlns:xlink="http://www.w3.org/1999/xlink">
<path d="M720,32L0,32L0,156L720,156L720,32M4,36L4,152L716,152L716,36" fill-rule="evenodd" fill="#000000"/>
<path d="M4,36L4,152L716,152L716,36" fill="#FFFFFF"/>
<line x1="602" y1="32" x2="602" y2="152" fill="#FFFFFF" stroke="#000000" stroke-width="2" stroke-miterlimit="3.999327"/>
<line x1="122" y1="32" x2="122" y2="152" fill="#FFFFFF" stroke="#000000" stroke-width="2" stroke-miterlimit="3.999327"/>
<path d="M361,302C444.396,302 512,234.396 512,151C512,67.605 444.396,0 361,0C277.605,0 210,67.605 210,151C210,234.396 277.605,302 361,302Z" fill="#FFFFFF" stroke="#000000" stroke-width="3" stroke-miterlimit="3.999327"/>
<rect  x="628" y="62" width="64" height="64" fill="#FFFFFF"/>
<path d="M681.066,95.76C680.639,95.273 680.403,94.648 680.403,94C680.403,93.352 680.639,92.727 681.066,92.24L684.48,88.4C684.856,87.98 685.089,87.452 685.147,86.892C685.204,86.331 685.083,85.767 684.8,85.28L679.466,76.053C679.186,75.567 678.759,75.181 678.247,74.951C677.735,74.721 677.163,74.659 676.613,74.773L671.6,75.787C670.962,75.918 670.298,75.812 669.733,75.488C669.168,75.164 668.741,74.644 668.533,74.027L666.906,69.147C666.728,68.617 666.387,68.157 665.932,67.831C665.478,67.506 664.932,67.332 664.373,67.333L653.706,67.333C653.125,67.303 652.55,67.464 652.068,67.791C651.587,68.119 651.225,68.595 651.04,69.147L649.547,74.027C649.339,74.644 648.912,75.164 648.347,75.488C647.782,75.812 647.118,75.918 646.48,75.787L641.333,74.773C640.812,74.7 640.281,74.782 639.806,75.01C639.332,75.237 638.935,75.6 638.667,76.053L633.333,85.28C633.043,85.762 632.912,86.323 632.96,86.883C633.008,87.444 633.232,87.974 633.6,88.4L636.987,92.24C637.414,92.727 637.65,93.352 637.65,94C637.65,94.648 637.414,95.273 636.987,95.76L633.6,99.6C633.232,100.025 633.008,100.556 632.96,101.117C632.912,101.677 633.043,102.238 633.333,102.72L638.667,111.947C638.947,112.433 639.374,112.819 639.886,113.049C640.398,113.279 640.97,113.341 641.52,113.227L646.533,112.213C647.171,112.081 647.835,112.188 648.4,112.512C648.965,112.836 649.392,113.356 649.6,113.973L651.227,118.853C651.412,119.405 651.773,119.881 652.255,120.209C652.736,120.536 653.312,120.697 653.893,120.667L664.56,120.667C665.119,120.668 665.664,120.494 666.119,120.168C666.573,119.843 666.914,119.383 667.093,118.853L668.72,113.973C668.928,113.356 669.355,112.836 669.919,112.512C670.484,112.188 671.149,112.081 671.786,112.213L676.8,113.227C677.35,113.341 677.921,113.279 678.434,113.049C678.946,112.819 679.373,112.433 679.653,111.947L684.986,102.72C685.27,102.233 685.391,101.668 685.334,101.108C685.276,100.547 685.043,100.019 684.666,99.6L681.066,95.76ZM677.093,99.333L679.226,101.733L675.813,107.653L672.666,107.013C670.746,106.621 668.748,106.947 667.052,107.93C665.356,108.913 664.08,110.485 663.466,112.347L662.453,115.333L655.626,115.333L654.666,112.293C654.053,110.431 652.777,108.86 651.081,107.877C649.385,106.894 647.387,106.567 645.467,106.96L642.32,107.6L638.853,101.707L640.987,99.307C642.298,97.84 643.024,95.941 643.024,93.973C643.024,92.005 642.298,90.107 640.987,88.64L638.853,86.24L642.267,80.373L645.413,81.013C647.334,81.406 649.332,81.08 651.028,80.096C652.724,79.113 653.999,77.542 654.613,75.68L655.626,72.667L662.453,72.667L663.466,75.707C664.08,77.568 665.356,79.14 667.052,80.123C668.748,81.106 670.746,81.432 672.666,81.04L675.813,80.4L679.226,86.32L677.093,88.72C675.796,90.183 675.08,92.071 675.08,94.027C675.08,95.982 675.796,97.87 677.093,99.333ZM659.04,83.333C656.93,83.333 654.868,83.959 653.114,85.131C651.36,86.303 649.993,87.969 649.185,89.918C648.378,91.867 648.167,94.012 648.578,96.081C648.99,98.15 650.006,100.051 651.497,101.542C652.989,103.034 654.89,104.05 656.959,104.462C659.028,104.873 661.173,104.662 663.122,103.855C665.071,103.047 666.737,101.68 667.909,99.926C669.081,98.172 669.706,96.11 669.706,94C669.706,91.171 668.583,88.458 666.582,86.457C664.582,84.457 661.869,83.333 659.04,83.333ZM659.04,99.333C657.985,99.333 656.954,99.02 656.077,98.434C655.2,97.848 654.516,97.015 654.112,96.041C653.709,95.066 653.603,93.994 653.809,92.959C654.015,91.925 654.523,90.975 655.269,90.229C656.014,89.483 656.965,88.975 657.999,88.769C659.034,88.563 660.106,88.669 661.081,89.073C662.055,89.476 662.888,90.16 663.474,91.037C664.06,91.914 664.373,92.945 664.373,94C664.373,95.414 663.811,96.771 662.811,97.771C661.811,98.771 660.454,99.333 659.04,99.333Z" fill="#000000"/>
<rect  x="508" y="62" width="64" height="64" fill="#FFFFFF"/>
<path d="M550.244,94.292C554.183,96.152 557.542,99.048 559.961,102.672C562.379,106.295 563.766,110.509 563.972,114.86C563.999,115.259 563.947,115.659 563.818,116.037C563.688,116.415 563.485,116.763 563.219,117.062C562.953,117.36 562.631,117.602 562.27,117.774C561.909,117.946 561.518,118.044 561.119,118.063C560.72,118.082 560.321,118.02 559.946,117.883C559.571,117.745 559.227,117.534 558.935,117.262C558.642,116.989 558.407,116.662 558.243,116.297C558.079,115.933 557.99,115.539 557.98,115.14C557.762,110.518 555.772,106.158 552.424,102.964C549.076,99.77 544.627,97.988 540,97.988C535.373,97.988 530.924,99.77 527.576,102.964C524.228,106.158 522.238,110.518 522.02,115.14C521.966,115.922 521.608,116.652 521.022,117.174C520.437,117.696 519.67,117.967 518.887,117.931C518.104,117.894 517.366,117.552 516.832,116.978C516.297,116.404 516.009,115.644 516.028,114.86C516.234,110.509 517.62,106.296 520.037,102.673C522.455,99.049 525.813,96.152 529.752,94.292C527.228,92.187 525.414,89.355 524.556,86.182C523.699,83.009 523.839,79.649 524.959,76.559C526.078,73.469 528.123,70.799 530.813,68.912C533.504,67.025 536.711,66.012 539.998,66.012C543.285,66.012 546.492,67.025 549.182,68.912C551.873,70.799 553.918,73.469 555.037,76.559C556.157,79.649 556.297,83.009 555.44,86.182C554.582,89.355 552.768,92.187 550.244,94.292ZM550,82C550,79.348 548.946,76.804 547.071,74.929C545.196,73.054 542.652,72 540,72C537.348,72 534.804,73.054 532.929,74.929C531.054,76.804 530,79.348 530,82C530,84.652 531.054,87.196 532.929,89.071C534.804,90.946 537.348,92 540,92C542.652,92 545.196,90.946 547.071,89.071C548.946,87.196 550,84.652 550,82Z" fill="#000000"/>
<rect  x="312" y="46" width="96" height="96" fill="#FFFFFF"/>
<path d="M398.64,87L362.64,55C361.91,54.359 360.972,54.005 360,54.005C359.028,54.005 358.09,54.359 357.36,55L321.36,87C320.748,87.541 320.317,88.257 320.124,89.051C319.931,89.844 319.985,90.678 320.28,91.44C320.57,92.192 321.08,92.838 321.744,93.295C322.408,93.752 323.194,93.998 324,94L328,94L328,130C328,131.061 328.421,132.078 329.172,132.829C329.922,133.579 330.939,134 332,134L388,134C389.061,134 390.078,133.579 390.828,132.829C391.579,132.078 392,131.061 392,130L392,94L396,94C396.806,93.998 397.592,93.752 398.256,93.295C398.92,92.838 399.43,92.192 399.72,91.44C400.015,90.678 400.069,89.844 399.876,89.051C399.683,88.257 399.252,87.541 398.64,87ZM364,126L356,126L356,114C356,112.939 356.421,111.922 357.172,111.172C357.922,110.422 358.939,110 360,110C361.061,110 362.078,110.422 362.828,111.172C363.579,111.922 364,112.939 364,114L364,126ZM384,126L372,126L372,114C372,110.818 370.736,107.765 368.485,105.515C366.235,103.264 363.183,102 360,102C356.817,102 353.765,103.264 351.515,105.515C349.264,107.765 348,110.818 348,114L348,126L336,126L336,94L384,94L384,126ZM334.52,86L360,63.36L385.48,86L334.52,86Z" fill="#000000"/>
<rect  x="148" y="62" width="64" height="64" fill="#FFFFFF"/>
<path d="M180,99.333C180.527,99.333 181.043,99.177 181.481,98.884C181.92,98.591 182.262,98.174 182.464,97.687C182.665,97.2 182.718,96.664 182.615,96.146C182.512,95.629 182.258,95.154 181.885,94.781C181.513,94.408 181.037,94.154 180.52,94.051C180.003,93.948 179.467,94.001 178.979,94.203C178.492,94.405 178.076,94.746 177.783,95.185C177.49,95.624 177.333,96.139 177.333,96.667C177.333,97.374 177.614,98.052 178.114,98.552C178.614,99.052 179.293,99.333 180,99.333ZM193.333,99.333C193.861,99.333 194.376,99.177 194.815,98.884C195.253,98.591 195.595,98.174 195.797,97.687C195.999,97.2 196.052,96.664 195.949,96.146C195.846,95.629 195.592,95.154 195.219,94.781C194.846,94.408 194.371,94.154 193.853,94.051C193.336,93.948 192.8,94.001 192.313,94.203C191.825,94.405 191.409,94.746 191.116,95.185C190.823,95.624 190.667,96.139 190.667,96.667C190.667,97.374 190.947,98.052 191.448,98.552C191.948,99.052 192.626,99.333 193.333,99.333ZM180,110C180.527,110 181.043,109.843 181.481,109.55C181.92,109.257 182.262,108.841 182.464,108.354C182.665,107.866 182.718,107.33 182.615,106.813C182.512,106.296 182.258,105.821 181.885,105.448C181.513,105.075 181.037,104.821 180.52,104.718C180.003,104.615 179.467,104.668 178.979,104.87C178.492,105.071 178.076,105.413 177.783,105.852C177.49,106.29 177.333,106.806 177.333,107.333C177.333,108.04 177.614,108.719 178.114,109.219C178.614,109.719 179.293,110 180,110ZM193.333,110C193.861,110 194.376,109.843 194.815,109.55C195.253,109.257 195.595,108.841 195.797,108.354C195.999,107.866 196.052,107.33 195.949,106.813C195.846,106.296 195.592,105.821 195.219,105.448C194.846,105.075 194.371,104.821 193.853,104.718C193.336,104.615 192.8,104.668 192.313,104.87C191.825,105.071 191.409,105.413 191.116,105.852C190.823,106.29 190.667,106.806 190.667,107.333C190.667,108.04 190.947,108.719 191.448,109.219C191.948,109.719 192.626,110 193.333,110ZM166.667,99.333C167.194,99.333 167.71,99.177 168.148,98.884C168.587,98.591 168.928,98.174 169.13,97.687C169.332,97.2 169.385,96.664 169.282,96.146C169.179,95.629 168.925,95.154 168.552,94.781C168.179,94.408 167.704,94.154 167.187,94.051C166.67,93.948 166.133,94.001 165.646,94.203C165.159,94.405 164.742,94.746 164.449,95.185C164.156,95.624 164,96.139 164,96.667C164,97.374 164.281,98.052 164.781,98.552C165.281,99.052 165.959,99.333 166.667,99.333ZM198.667,72.667L196,72.667L196,70C196,69.293 195.719,68.614 195.219,68.114C194.719,67.614 194.04,67.333 193.333,67.333C192.626,67.333 191.948,67.614 191.448,68.114C190.947,68.614 190.667,69.293 190.667,70L190.667,72.667L169.333,72.667L169.333,70C169.333,69.293 169.052,68.614 168.552,68.114C168.052,67.614 167.374,67.333 166.667,67.333C165.959,67.333 165.281,67.614 164.781,68.114C164.281,68.614 164,69.293 164,70L164,72.667L161.333,72.667C159.212,72.667 157.177,73.509 155.676,75.01C154.176,76.51 153.333,78.545 153.333,80.667L153.333,112.667C153.333,114.788 154.176,116.823 155.676,118.323C157.177,119.824 159.212,120.667 161.333,120.667L198.667,120.667C200.788,120.667 202.823,119.824 204.323,118.323C205.824,116.823 206.667,114.788 206.667,112.667L206.667,80.667C206.667,78.545 205.824,76.51 204.323,75.01C202.823,73.509 200.788,72.667 198.667,72.667ZM201.333,112.667C201.333,113.374 201.052,114.052 200.552,114.552C200.052,115.052 199.374,115.333 198.667,115.333L161.333,115.333C160.626,115.333 159.948,115.052 159.448,114.552C158.948,114.052 158.667,113.374 158.667,112.667L158.667,88.667L201.333,88.667L201.333,112.667ZM201.333,83.333L158.667,83.333L158.667,80.667C158.667,79.959 158.948,79.281 159.448,78.781C159.948,78.281 160.626,78 161.333,78L198.667,78C199.374,78 200.052,78.281 200.552,78.781C201.052,79.281 201.333,79.959 201.333,80.667L201.333,83.333ZM166.667,110C167.194,110 167.71,109.843 168.148,109.55C168.587,109.257 168.928,108.841 169.13,108.354C169.332,107.866 169.385,107.33 169.282,106.813C169.179,106.296 168.925,105.821 168.552,105.448C168.179,105.075 167.704,104.821 167.187,104.718C166.67,104.615 166.133,104.668 165.646,104.87C165.159,105.071 164.742,105.413 164.449,105.852C164.156,106.29 164,106.806 164,107.333C164,108.04 164.281,108.719 164.781,109.219C165.281,109.719 165.959,110 166.667,110Z" fill="#000000"/>
<rect  x="28" y="62" width="64" height="64" fill="#FFFFFF"/>
<path d="M52,91.333C54.11,91.333 56.172,90.708 57.926,89.536C59.68,88.364 61.047,86.698 61.855,84.749C62.662,82.8 62.873,80.655 62.462,78.586C62.05,76.517 61.034,74.616 59.542,73.124C58.051,71.632 56.15,70.617 54.081,70.205C52.012,69.793 49.867,70.005 47.918,70.812C45.969,71.619 44.303,72.986 43.131,74.741C41.959,76.495 41.333,78.557 41.333,80.667C41.333,83.496 42.457,86.209 44.457,88.209C46.458,90.21 49.171,91.333 52,91.333ZM52,75.333C53.055,75.333 54.086,75.646 54.963,76.232C55.84,76.818 56.524,77.651 56.927,78.626C57.331,79.6 57.437,80.673 57.231,81.707C57.025,82.742 56.517,83.692 55.771,84.438C55.025,85.184 54.075,85.692 53.04,85.898C52.006,86.103 50.933,85.998 49.959,85.594C48.984,85.19 48.151,84.507 47.565,83.63C46.979,82.753 46.667,81.722 46.667,80.667C46.667,79.252 47.228,77.896 48.229,76.895C49.229,75.895 50.585,75.333 52,75.333ZM73.333,96.667C74.915,96.667 76.462,96.197 77.778,95.318C79.093,94.439 80.119,93.19 80.724,91.728C81.33,90.266 81.488,88.658 81.179,87.106C80.871,85.554 80.109,84.129 78.99,83.01C77.871,81.891 76.446,81.129 74.894,80.82C73.342,80.512 71.734,80.67 70.272,81.276C68.81,81.881 67.56,82.907 66.681,84.222C65.802,85.538 65.333,87.084 65.333,88.667C65.333,90.788 66.176,92.823 67.676,94.324C69.177,95.824 71.211,96.667 73.333,96.667ZM73.333,86C73.861,86 74.376,86.156 74.815,86.449C75.253,86.742 75.595,87.159 75.797,87.646C75.999,88.133 76.052,88.67 75.949,89.187C75.846,89.704 75.592,90.179 75.219,90.552C74.846,90.925 74.371,91.179 73.853,91.282C73.336,91.385 72.8,91.332 72.313,91.13C71.825,90.929 71.409,90.587 71.116,90.148C70.823,89.71 70.667,89.194 70.667,88.667C70.667,87.959 70.947,87.281 71.448,86.781C71.948,86.281 72.626,86 73.333,86ZM73.333,99.333C70.378,99.337 67.508,100.322 65.173,102.133C62.561,99.532 59.237,97.762 55.621,97.046C52.004,96.331 48.257,96.703 44.851,98.115C41.446,99.527 38.534,101.916 36.485,104.98C34.435,108.044 33.338,111.647 33.333,115.333C33.333,116.041 33.614,116.719 34.114,117.219C34.614,117.719 35.293,118 36,118C36.707,118 37.385,117.719 37.886,117.219C38.386,116.719 38.667,116.041 38.667,115.333C38.667,111.797 40.071,108.406 42.572,105.905C45.072,103.405 48.464,102 52,102C55.536,102 58.927,103.405 61.428,105.905C63.928,108.406 65.333,111.797 65.333,115.333C65.333,116.041 65.614,116.719 66.114,117.219C66.614,117.719 67.293,118 68,118C68.707,118 69.385,117.719 69.885,117.219C70.386,116.719 70.667,116.041 70.667,115.333C70.673,112.209 69.884,109.135 68.373,106.4C69.552,105.469 70.968,104.888 72.462,104.724C73.955,104.561 75.464,104.821 76.816,105.475C78.168,106.128 79.309,107.15 80.108,108.422C80.907,109.694 81.331,111.165 81.333,112.667C81.333,113.374 81.614,114.052 82.114,114.552C82.614,115.052 83.293,115.333 84,115.333C84.707,115.333 85.385,115.052 85.885,114.552C86.386,114.052 86.667,113.374 86.667,112.667C86.667,109.13 85.262,105.739 82.761,103.239C80.261,100.738 76.869,99.333 73.333,99.333Z" fill="#000000"/>
</svg>
