<svg width="56" height="58" viewBox="0 0 56 58" fill="none" xmlns="http://www.w3.org/2000/svg" xmlns:xlink="http://www.w3.org/1999/xlink">
<path d="M49,44.467L49,47.467C50.657,47.467 52,46.123 52,44.467L49,44.467ZM7,44.467L4,44.467C4,46.123 5.343,47.467 7,47.467L7,44.467ZM49,41.467L7,41.467L7,47.467L49,47.467L49,41.467ZM10,44.467L10,21.6L4,21.6L4,44.467L10,44.467ZM10,21.6C10,12.624 17.861,5 28,5L28,-1C14.944,-1 4,8.927 4,21.6L10,21.6ZM28,5C38.139,5 46,12.624 46,21.6L52,21.6C52,8.927 41.056,-1 28,-1L28,5ZM46,21.6L46,44.467L52,44.467L52,21.6L46,21.6Z" fill="#000000"/>
<line x1="0" y1="55" x2="56" y2="55" stroke="#000000" stroke-width="3" stroke-miterlimit="3.999327" stroke-linecap="round"/>
</svg>
